<mxfile host="app.diagrams.net" modified="2023-07-07T09:31:39.720Z" agent="Mozilla/5.0 (Macintosh; Intel Mac OS X 10_15_7) AppleWebKit/605.1.15 (KHTML, like Gecko) Version/15.6.1 Safari/605.1.15" etag="kM3aqdEiN_MmQsfZ82p_" version="21.3.4" type="github" pages="3">
  <diagram name="Page-1" id="efa7a0a1-bf9b-a30e-e6df-94a7791c09e9">
    <mxGraphModel dx="1866" dy="3601" grid="1" gridSize="10" guides="1" tooltips="1" connect="1" arrows="1" fold="1" page="1" pageScale="1" pageWidth="826" pageHeight="1169" background="none" math="0" shadow="0">
      <root>
        <mxCell id="0" />
        <mxCell id="1" parent="0" />
        <mxCell id="crxQdrDWMOCMF7tTb0ay-156" value="Public subnet" style="points=[[0,0],[0.25,0],[0.5,0],[0.75,0],[1,0],[1,0.25],[1,0.5],[1,0.75],[1,1],[0.75,1],[0.5,1],[0.25,1],[0,1],[0,0.75],[0,0.5],[0,0.25]];outlineConnect=0;gradientColor=none;html=1;whiteSpace=wrap;fontSize=12;fontStyle=0;container=1;pointerEvents=0;collapsible=0;recursiveResize=0;shape=mxgraph.aws4.group;grIcon=mxgraph.aws4.group_security_group;grStroke=0;strokeColor=#248814;fillColor=#E9F3E6;verticalAlign=top;align=left;spacingLeft=30;fontColor=#248814;dashed=0;" parent="1" vertex="1">
          <mxGeometry x="260" y="-850" width="260" height="420" as="geometry" />
        </mxCell>
        <mxCell id="crxQdrDWMOCMF7tTb0ay-158" value="" style="rounded=1;arcSize=10;dashed=1;strokeColor=#ff0000;fillColor=none;gradientColor=none;dashPattern=8 4;strokeWidth=2;" parent="1" vertex="1">
          <mxGeometry x="290.25" y="-770" width="199.5" height="199.5" as="geometry" />
        </mxCell>
        <mxCell id="crxQdrDWMOCMF7tTb0ay-155" value="Private subnet" style="points=[[0,0],[0.25,0],[0.5,0],[0.75,0],[1,0],[1,0.25],[1,0.5],[1,0.75],[1,1],[0.75,1],[0.5,1],[0.25,1],[0,1],[0,0.75],[0,0.5],[0,0.25]];outlineConnect=0;gradientColor=none;html=1;whiteSpace=wrap;fontSize=12;fontStyle=0;container=1;pointerEvents=0;collapsible=0;recursiveResize=0;shape=mxgraph.aws4.group;grIcon=mxgraph.aws4.group_security_group;grStroke=0;strokeColor=#147EBA;fillColor=#E6F2F8;verticalAlign=top;align=left;spacingLeft=30;fontColor=#147EBA;dashed=0;" parent="1" vertex="1">
          <mxGeometry x="690" y="-940" width="630" height="530" as="geometry" />
        </mxCell>
        <mxCell id="crxQdrDWMOCMF7tTb0ay-153" value="VPC" style="sketch=0;outlineConnect=0;gradientColor=none;html=1;whiteSpace=wrap;fontSize=12;fontStyle=0;shape=mxgraph.aws4.group;grIcon=mxgraph.aws4.group_vpc;strokeColor=#879196;fillColor=none;verticalAlign=top;align=left;spacingLeft=30;fontColor=#879196;dashed=0;" parent="1" vertex="1">
          <mxGeometry x="140" y="-970" width="1245" height="630" as="geometry" />
        </mxCell>
        <mxCell id="19" value="&lt;p style=&quot;margin: 0px; margin-top: 4px; text-align: center; text-decoration: underline;&quot;&gt;&lt;strong&gt;Role&lt;/strong&gt;&lt;/p&gt;&lt;hr /&gt;&lt;p style=&quot;margin: 0px; margin-left: 8px;&quot;&gt;IdCompany&lt;br /&gt;Name&lt;/p&gt;&lt;p style=&quot;margin: 0px; margin-left: 8px;&quot;&gt;Description&lt;/p&gt;&lt;p style=&quot;margin: 0px; margin-left: 8px;&quot;&gt;CreatedAt&lt;/p&gt;&lt;p style=&quot;margin: 0px; margin-left: 8px;&quot;&gt;UpdatedAt&lt;/p&gt;&lt;p style=&quot;margin: 0px; margin-left: 8px;&quot;&gt;Enabled&lt;/p&gt;" style="verticalAlign=top;align=left;overflow=fill;fontSize=12;fontFamily=Helvetica;html=1;strokeColor=#003366;shadow=1;fillColor=#D4E1F5;fontColor=#003366" parent="1" vertex="1">
          <mxGeometry x="310.0000000000001" y="91.64000000000044" width="160" height="120" as="geometry" />
        </mxCell>
        <mxCell id="20" value="&lt;p style=&quot;margin: 0px; margin-top: 4px; text-align: center; text-decoration: underline;&quot;&gt;&lt;strong&gt;Company&lt;/strong&gt;&lt;/p&gt;&lt;hr /&gt;&lt;p style=&quot;margin: 0px; margin-left: 8px;&quot;&gt;Name&lt;/p&gt;&lt;p style=&quot;margin: 0px; margin-left: 8px;&quot;&gt;Description&lt;/p&gt;&lt;p style=&quot;margin: 0px; margin-left: 8px;&quot;&gt;CreatedAt&lt;/p&gt;&lt;p style=&quot;margin: 0px; margin-left: 8px;&quot;&gt;UpdatedAt&lt;/p&gt;&lt;p style=&quot;margin: 0px; margin-left: 8px;&quot;&gt;Enabled&lt;/p&gt;" style="verticalAlign=top;align=left;overflow=fill;fontSize=12;fontFamily=Helvetica;html=1;strokeColor=#003366;shadow=1;fillColor=#D4E1F5;fontColor=#003366" parent="1" vertex="1">
          <mxGeometry x="310.00000000000006" y="302.4999999999998" width="160" height="125" as="geometry" />
        </mxCell>
        <mxCell id="21" value="&lt;p style=&quot;margin: 0px; margin-top: 4px; text-align: center; text-decoration: underline;&quot;&gt;&lt;strong&gt;Calendar&lt;/strong&gt;&lt;/p&gt;&lt;hr /&gt;&lt;p style=&quot;margin: 0px; margin-left: 8px;&quot;&gt;IdCalendar&lt;/p&gt;&lt;p style=&quot;margin: 0px; margin-left: 8px;&quot;&gt;IdCompany&lt;/p&gt;&lt;p style=&quot;margin: 0px; margin-left: 8px;&quot;&gt;Name&lt;/p&gt;&lt;p style=&quot;margin: 0px; margin-left: 8px;&quot;&gt;Description&lt;/p&gt;&lt;p style=&quot;margin: 0px; margin-left: 8px;&quot;&gt;ValidUntil&lt;/p&gt;&lt;p style=&quot;margin: 0px; margin-left: 8px;&quot;&gt;CreatedAt&lt;/p&gt;&lt;p style=&quot;margin: 0px; margin-left: 8px;&quot;&gt;UpdatedAt&lt;/p&gt;&lt;p style=&quot;margin: 0px; margin-left: 8px;&quot;&gt;Enabled&lt;/p&gt;" style="verticalAlign=top;align=left;overflow=fill;fontSize=12;fontFamily=Helvetica;html=1;strokeColor=#003366;shadow=1;fillColor=#D4E1F5;fontColor=#003366" parent="1" vertex="1">
          <mxGeometry x="40.00000000000002" y="284.99999999999983" width="160" height="160" as="geometry" />
        </mxCell>
        <mxCell id="22" value="&lt;p style=&quot;margin: 0px; margin-top: 4px; text-align: center; text-decoration: underline;&quot;&gt;&lt;strong&gt;User&lt;/strong&gt;&lt;/p&gt;&lt;hr /&gt;&lt;p style=&quot;margin: 0px; margin-left: 8px;&quot;&gt;IdUser&lt;/p&gt;&lt;p style=&quot;margin: 0px; margin-left: 8px;&quot;&gt;IdCompany&lt;/p&gt;&lt;p style=&quot;margin: 0px; margin-left: 8px;&quot;&gt;Name&lt;/p&gt;&lt;p style=&quot;margin: 0px; margin-left: 8px;&quot;&gt;LastName&lt;/p&gt;&lt;p style=&quot;margin: 0px; margin-left: 8px;&quot;&gt;Email&lt;/p&gt;&lt;p style=&quot;margin: 0px; margin-left: 8px;&quot;&gt;UserName&lt;/p&gt;&lt;p style=&quot;margin: 0px; margin-left: 8px;&quot;&gt;Password&lt;/p&gt;&lt;p style=&quot;margin: 0px; margin-left: 8px;&quot;&gt;CreatedAt&lt;/p&gt;&lt;p style=&quot;margin: 0px; margin-left: 8px;&quot;&gt;UpdatedAt&lt;/p&gt;&lt;p style=&quot;margin: 0px; margin-left: 8px;&quot;&gt;Enabled&lt;/p&gt;" style="verticalAlign=top;align=left;overflow=fill;fontSize=12;fontFamily=Helvetica;html=1;strokeColor=#003366;shadow=1;fillColor=#D4E1F5;fontColor=#003366" parent="1" vertex="1">
          <mxGeometry x="879.9999999999999" y="430" width="160.0000000000001" height="180" as="geometry" />
        </mxCell>
        <mxCell id="23" value="&lt;p style=&quot;margin: 0px; margin-top: 4px; text-align: center; text-decoration: underline;&quot;&gt;&lt;strong&gt;UserProjectRole&lt;/strong&gt;&lt;/p&gt;&lt;hr /&gt;&lt;p style=&quot;margin: 0px; margin-left: 8px;&quot;&gt;IdUserProjectRole&lt;/p&gt;&lt;p style=&quot;margin: 0px; margin-left: 8px;&quot;&gt;IdRole&lt;/p&gt;&lt;p style=&quot;margin: 0px; margin-left: 8px;&quot;&gt;IdProject&lt;/p&gt;&lt;p style=&quot;margin: 0px; margin-left: 8px;&quot;&gt;IdUser&lt;/p&gt;" style="verticalAlign=top;align=left;overflow=fill;fontSize=12;fontFamily=Helvetica;html=1;strokeColor=#003366;shadow=1;fillColor=#D4E1F5;fontColor=#003366" parent="1" vertex="1">
          <mxGeometry x="591.0800000000005" y="101.64000000000058" width="160" height="100" as="geometry" />
        </mxCell>
        <mxCell id="24" value="&lt;p style=&quot;margin: 0px; margin-top: 4px; text-align: center; text-decoration: underline;&quot;&gt;&lt;strong&gt;Client&lt;/strong&gt;&lt;/p&gt;&lt;hr /&gt;&lt;p style=&quot;margin: 0px; margin-left: 8px;&quot;&gt;IdClient&lt;/p&gt;&lt;p style=&quot;margin: 0px; margin-left: 8px;&quot;&gt;IdCompany&lt;/p&gt;&lt;p style=&quot;margin: 0px; margin-left: 8px;&quot;&gt;Name&lt;/p&gt;&lt;p style=&quot;margin: 0px; margin-left: 8px;&quot;&gt;Description&lt;/p&gt;&lt;p style=&quot;margin: 0px; margin-left: 8px;&quot;&gt;CreatedAt&lt;/p&gt;&lt;p style=&quot;margin: 0px; margin-left: 8px;&quot;&gt;UpdatedAt&lt;/p&gt;&lt;p style=&quot;margin: 0px; margin-left: 8px;&quot;&gt;Enabled&lt;/p&gt;" style="verticalAlign=top;align=left;overflow=fill;fontSize=12;fontFamily=Helvetica;html=1;strokeColor=#003366;shadow=1;fillColor=#D4E1F5;fontColor=#003366" parent="1" vertex="1">
          <mxGeometry x="310.0000000000002" y="556.9600000000006" width="160" height="150" as="geometry" />
        </mxCell>
        <mxCell id="25" value="&lt;p style=&quot;margin: 0px; margin-top: 4px; text-align: center; text-decoration: underline;&quot;&gt;&lt;strong&gt;Holiday&lt;/strong&gt;&lt;/p&gt;&lt;hr /&gt;&lt;p style=&quot;margin: 0px; margin-left: 8px;&quot;&gt;IdHoliday&lt;/p&gt;&lt;p style=&quot;margin: 0px; margin-left: 8px;&quot;&gt;IdCalendar&lt;/p&gt;&lt;p style=&quot;margin: 0px; margin-left: 8px;&quot;&gt;Name&lt;/p&gt;&lt;p style=&quot;margin: 0px; margin-left: 8px;&quot;&gt;Description&lt;/p&gt;&lt;p style=&quot;margin: 0px; margin-left: 8px;&quot;&gt;Date&lt;/p&gt;&lt;p style=&quot;margin: 0px; margin-left: 8px;&quot;&gt;CreatedAt&lt;/p&gt;&lt;p style=&quot;margin: 0px; margin-left: 8px;&quot;&gt;UpdatedAt&lt;/p&gt;&lt;p style=&quot;margin: 0px; margin-left: 8px;&quot;&gt;Enabled&lt;/p&gt;" style="verticalAlign=top;align=left;overflow=fill;fontSize=12;fontFamily=Helvetica;html=1;strokeColor=#003366;shadow=1;fillColor=#D4E1F5;fontColor=#003366" parent="1" vertex="1">
          <mxGeometry x="40.00000000000005" y="21.640000000000366" width="160" height="160" as="geometry" />
        </mxCell>
        <mxCell id="26" value="&lt;p style=&quot;margin: 0px; margin-top: 4px; text-align: center; text-decoration: underline;&quot;&gt;&lt;strong&gt;TimeSheet&lt;/strong&gt;&lt;/p&gt;&lt;hr /&gt;&lt;p style=&quot;margin: 0px; margin-left: 8px;&quot;&gt;IdTimeSheet&lt;/p&gt;&lt;p style=&quot;margin: 0px; margin-left: 8px;&quot;&gt;Name&lt;/p&gt;&lt;p style=&quot;margin: 0px; margin-left: 8px;&quot;&gt;Description&lt;/p&gt;&lt;p style=&quot;margin: 0px; margin-left: 8px;&quot;&gt;IdProject&lt;/p&gt;&lt;p style=&quot;margin: 0px; margin-left: 8px;&quot;&gt;CreatedAt&lt;/p&gt;&lt;p style=&quot;margin: 0px; margin-left: 8px;&quot;&gt;UpdatedAt&lt;/p&gt;&lt;p style=&quot;margin: 0px; margin-left: 8px;&quot;&gt;Enabled&lt;/p&gt;&lt;p style=&quot;margin: 0px; margin-left: 8px;&quot;&gt;IdUser&lt;/p&gt;" style="verticalAlign=top;align=left;overflow=fill;fontSize=12;fontFamily=Helvetica;html=1;strokeColor=#003366;shadow=1;fillColor=#D4E1F5;fontColor=#003366" parent="1" vertex="1">
          <mxGeometry x="1170" y="680" width="160" height="170" as="geometry" />
        </mxCell>
        <mxCell id="27" value="&lt;p style=&quot;margin: 0px; margin-top: 4px; text-align: center; text-decoration: underline;&quot;&gt;&lt;strong&gt;TimeSheetHour&lt;/strong&gt;&lt;/p&gt;&lt;hr /&gt;&lt;p style=&quot;margin: 0px; margin-left: 8px;&quot;&gt;IdTimeSheetHour&lt;br /&gt;IdTimeSheet&lt;/p&gt;&lt;p style=&quot;margin: 0px; margin-left: 8px;&quot;&gt;IdUser&lt;/p&gt;&lt;p style=&quot;margin: 0px; margin-left: 8px;&quot;&gt;IdTimeCategory&lt;/p&gt;&lt;p style=&quot;margin: 0px; margin-left: 8px;&quot;&gt;IdTask&lt;/p&gt;&lt;p style=&quot;margin: 0px; margin-left: 8px;&quot;&gt;Quantity&lt;/p&gt;&lt;p style=&quot;margin: 0px; margin-left: 8px;&quot;&gt;Description&lt;/p&gt;&lt;p style=&quot;margin: 0px; margin-left: 8px;&quot;&gt;IdProjectManager&lt;/p&gt;&lt;p style=&quot;margin: 0px; margin-left: 8px;&quot;&gt;CreatedAt&lt;/p&gt;&lt;p style=&quot;margin: 0px; margin-left: 8px;&quot;&gt;UpdatedAt&lt;/p&gt;&lt;p style=&quot;margin: 0px; margin-left: 8px;&quot;&gt;Enabled&lt;/p&gt;" style="verticalAlign=top;align=left;overflow=fill;fontSize=12;fontFamily=Helvetica;html=1;strokeColor=#003366;shadow=1;fillColor=#D4E1F5;fontColor=#003366" parent="1" vertex="1">
          <mxGeometry x="1170" y="419.99999999999994" width="160" height="200" as="geometry" />
        </mxCell>
        <mxCell id="28" value="&lt;p style=&quot;margin: 0px; margin-top: 4px; text-align: center; text-decoration: underline;&quot;&gt;&lt;strong&gt;Document&lt;/strong&gt;&lt;/p&gt;&lt;hr /&gt;&lt;p style=&quot;margin: 0px; margin-left: 8px;&quot;&gt;IdDocument&lt;/p&gt;&lt;p style=&quot;margin: 0px; margin-left: 8px;&quot;&gt;Name&lt;/p&gt;&lt;p style=&quot;margin: 0px; margin-left: 8px;&quot;&gt;Description&lt;/p&gt;&lt;p style=&quot;margin: 0px; margin-left: 8px;&quot;&gt;ValidFrom&lt;/p&gt;&lt;p style=&quot;margin: 0px; margin-left: 8px;&quot;&gt;ValidUntil&lt;/p&gt;&lt;p style=&quot;margin: 0px; margin-left: 8px;&quot;&gt;DocumentContents&lt;/p&gt;&lt;p style=&quot;margin: 0px; margin-left: 8px;&quot;&gt;CreatedAt&lt;/p&gt;&lt;p style=&quot;margin: 0px; margin-left: 8px;&quot;&gt;UpdateAt&lt;/p&gt;&lt;p style=&quot;margin: 0px; margin-left: 8px;&quot;&gt;Enabled&lt;/p&gt;" style="verticalAlign=top;align=left;overflow=fill;fontSize=12;fontFamily=Helvetica;html=1;strokeColor=#003366;shadow=1;fillColor=#D4E1F5;fontColor=#003366" parent="1" vertex="1">
          <mxGeometry x="129.9999999999999" y="881.1600000000003" width="160" height="180" as="geometry" />
        </mxCell>
        <mxCell id="29" value="&lt;p style=&quot;margin: 0px; margin-top: 4px; text-align: center; text-decoration: underline;&quot;&gt;&lt;strong&gt;Project&lt;/strong&gt;&lt;/p&gt;&lt;hr /&gt;&lt;p style=&quot;margin: 0px; margin-left: 8px;&quot;&gt;IdProject&lt;/p&gt;&lt;p style=&quot;margin: 0px; margin-left: 8px;&quot;&gt;IdClient&lt;/p&gt;&lt;p style=&quot;margin: 0px; margin-left: 8px;&quot;&gt;Name&lt;/p&gt;&lt;p style=&quot;margin: 0px; margin-left: 8px;&quot;&gt;Description&lt;/p&gt;&lt;p style=&quot;margin: 0px; margin-left: 8px;&quot;&gt;StartDate&lt;/p&gt;&lt;p style=&quot;margin: 0px; margin-left: 8px;&quot;&gt;EndDate&lt;/p&gt;&lt;p style=&quot;margin: 0px; margin-left: 8px;&quot;&gt;CreatedAt&lt;/p&gt;&lt;p style=&quot;margin: 0px; margin-left: 8px;&quot;&gt;UpdatedAt&lt;/p&gt;&lt;p style=&quot;margin: 0px; margin-left: 8px;&quot;&gt;Enabled&lt;br /&gt;IdProjectManager&lt;/p&gt;" style="verticalAlign=top;align=left;overflow=fill;fontSize=12;fontFamily=Helvetica;html=1;strokeColor=#003366;shadow=1;fillColor=#D4E1F5;fontColor=#003366" parent="1" vertex="1">
          <mxGeometry x="591.0800000000003" y="531.9600000000007" width="160" height="200" as="geometry" />
        </mxCell>
        <mxCell id="30" value="&lt;p style=&quot;margin: 0px; margin-top: 4px; text-align: center; text-decoration: underline;&quot;&gt;&lt;strong&gt;TimeCategory&lt;/strong&gt;&lt;/p&gt;&lt;hr /&gt;&lt;p style=&quot;margin: 0px; margin-left: 8px;&quot;&gt;IdTimeCategory&lt;/p&gt;&lt;p style=&quot;margin: 0px; margin-left: 8px;&quot;&gt;Name&lt;/p&gt;&lt;p style=&quot;margin: 0px; margin-left: 8px;&quot;&gt;Description&lt;/p&gt;&lt;p style=&quot;margin: 0px; margin-left: 8px;&quot;&gt;CreatedAt&lt;/p&gt;&lt;p style=&quot;margin: 0px; margin-left: 8px;&quot;&gt;UpdatedAt&lt;/p&gt;&lt;p style=&quot;margin: 0px; margin-left: 8px;&quot;&gt;Enabled&lt;/p&gt;" style="verticalAlign=top;align=left;overflow=fill;fontSize=12;fontFamily=Helvetica;html=1;strokeColor=#003366;shadow=1;fillColor=#D4E1F5;fontColor=#003366" parent="1" vertex="1">
          <mxGeometry x="1420.0000000000002" y="455.0000000000001" width="160" height="130" as="geometry" />
        </mxCell>
        <mxCell id="31" value="&lt;p style=&quot;margin: 0px; margin-top: 4px; text-align: center; text-decoration: underline;&quot;&gt;&lt;strong&gt;TimeSheetCostCenter&lt;/strong&gt;&lt;/p&gt;&lt;hr /&gt;&lt;p style=&quot;margin: 0px; margin-left: 8px;&quot;&gt;IdTimeSheetCostCenter&lt;/p&gt;&lt;p style=&quot;margin: 0px; margin-left: 8px;&quot;&gt;IdTimeSheet&lt;/p&gt;&lt;p style=&quot;margin: 0px; margin-left: 8px;&quot;&gt;IdCostCenter&lt;/p&gt;" style="verticalAlign=top;align=left;overflow=fill;fontSize=12;fontFamily=Helvetica;html=1;strokeColor=#003366;shadow=1;fillColor=#D4E1F5;fontColor=#003366" parent="1" vertex="1">
          <mxGeometry x="1170" y="912.4999999999997" width="160" height="95" as="geometry" />
        </mxCell>
        <mxCell id="32" value="&lt;p style=&quot;margin: 0px; margin-top: 4px; text-align: center; text-decoration: underline;&quot;&gt;&lt;strong&gt;CostCenter&lt;/strong&gt;&lt;/p&gt;&lt;hr /&gt;&lt;p style=&quot;margin: 0px; margin-left: 8px;&quot;&gt;IdCostCenter&lt;/p&gt;&lt;p style=&quot;margin: 0px; margin-left: 8px;&quot;&gt;Name&lt;/p&gt;&lt;p style=&quot;margin: 0px; margin-left: 8px;&quot;&gt;Description&lt;/p&gt;&lt;p style=&quot;margin: 0px; margin-left: 8px;&quot;&gt;CreatedAt&lt;/p&gt;&lt;p style=&quot;margin: 0px; margin-left: 8px;&quot;&gt;UpdatedAt&lt;/p&gt;&lt;p style=&quot;margin: 0px; margin-left: 8px;&quot;&gt;Enabled&lt;/p&gt;" style="verticalAlign=top;align=left;overflow=fill;fontSize=12;fontFamily=Helvetica;html=1;strokeColor=#003366;shadow=1;fillColor=#D4E1F5;fontColor=#003366" parent="1" vertex="1">
          <mxGeometry x="940.0000000000001" y="889.9999999999995" width="160" height="140" as="geometry" />
        </mxCell>
        <mxCell id="33" value="&lt;p style=&quot;margin: 0px; margin-top: 4px; text-align: center; text-decoration: underline;&quot;&gt;&lt;strong&gt;ProjectCostCenter&lt;/strong&gt;&lt;/p&gt;&lt;hr /&gt;&lt;p style=&quot;margin: 0px; margin-left: 8px;&quot;&gt;IdProjectCostCenter&lt;/p&gt;&lt;p style=&quot;margin: 0px; margin-left: 8px;&quot;&gt;IdProject&lt;/p&gt;&lt;p style=&quot;margin: 0px; margin-left: 8px;&quot;&gt;IdCostCenter&lt;/p&gt;" style="verticalAlign=top;align=left;overflow=fill;fontSize=12;fontFamily=Helvetica;html=1;strokeColor=#003366;shadow=1;fillColor=#D4E1F5;fontColor=#003366" parent="1" vertex="1">
          <mxGeometry x="630" y="914.9999999999995" width="160" height="90" as="geometry" />
        </mxCell>
        <mxCell id="34" value="&lt;p style=&quot;margin: 0px ; margin-top: 4px ; text-align: center ; text-decoration: underline&quot;&gt;&lt;strong&gt;ProjectDocument&lt;/strong&gt;&lt;/p&gt;&lt;hr&gt;&lt;p style=&quot;margin: 0px ; margin-left: 8px&quot;&gt;IdProjectDocument&lt;/p&gt;&lt;p style=&quot;margin: 0px ; margin-left: 8px&quot;&gt;IdProject&lt;/p&gt;&lt;p style=&quot;margin: 0px ; margin-left: 8px&quot;&gt;IdDocument&lt;/p&gt;" style="verticalAlign=top;align=left;overflow=fill;fontSize=12;fontFamily=Helvetica;html=1;strokeColor=#003366;shadow=1;fillColor=#D4E1F5;fontColor=#003366" parent="1" vertex="1">
          <mxGeometry x="440.00000000000006" y="926.1600000000003" width="160" height="90" as="geometry" />
        </mxCell>
        <mxCell id="35" value="&lt;p style=&quot;margin: 0px; margin-top: 4px; text-align: center; text-decoration: underline;&quot;&gt;&lt;strong&gt;Tasks&lt;/strong&gt;&lt;/p&gt;&lt;hr /&gt;&lt;p style=&quot;margin: 0px; margin-left: 8px;&quot;&gt;IdTask&lt;/p&gt;&lt;p style=&quot;margin: 0px; margin-left: 8px;&quot;&gt;Name&lt;/p&gt;&lt;p style=&quot;margin: 0px; margin-left: 8px;&quot;&gt;Description&lt;/p&gt;&lt;p style=&quot;margin: 0px; margin-left: 8px;&quot;&gt;Work&lt;/p&gt;&lt;p style=&quot;margin: 0px; margin-left: 8px;&quot;&gt;IdProject&lt;/p&gt;&lt;p style=&quot;margin: 0px; margin-left: 8px;&quot;&gt;StartDate&lt;/p&gt;&lt;p style=&quot;margin: 0px; margin-left: 8px;&quot;&gt;EndDate&lt;/p&gt;&lt;p style=&quot;margin: 0px; margin-left: 8px;&quot;&gt;CreatedAt&lt;/p&gt;&lt;p style=&quot;margin: 0px; margin-left: 8px;&quot;&gt;UpdatedAt&lt;/p&gt;&lt;p style=&quot;margin: 0px; margin-left: 8px;&quot;&gt;Enabled&lt;/p&gt;" style="verticalAlign=top;align=left;overflow=fill;fontSize=12;fontFamily=Helvetica;html=1;strokeColor=#003366;shadow=1;fillColor=#D4E1F5;fontColor=#003366" parent="1" vertex="1">
          <mxGeometry x="1170" y="140.00000000000009" width="160" height="190" as="geometry" />
        </mxCell>
        <mxCell id="36" value="" style="endArrow=open;endSize=12;startArrow=diamondThin;startSize=14;startFill=0;edgeStyle=orthogonalEdgeStyle;" parent="1" source="19" target="20" edge="1">
          <mxGeometry y="160" as="geometry">
            <mxPoint y="160" as="sourcePoint" />
            <mxPoint x="160" y="160" as="targetPoint" />
          </mxGeometry>
        </mxCell>
        <mxCell id="37" value="0..n" style="resizable=0;align=left;verticalAlign=top;labelBackgroundColor=#ffffff;fontSize=10;strokeColor=#003366;shadow=1;fillColor=#D4E1F5;fontColor=#003366" parent="36" connectable="0" vertex="1">
          <mxGeometry x="-1" relative="1" as="geometry">
            <mxPoint x="10" as="offset" />
          </mxGeometry>
        </mxCell>
        <mxCell id="38" value="1" style="resizable=0;align=right;verticalAlign=top;labelBackgroundColor=#ffffff;fontSize=10;strokeColor=#003366;shadow=1;fillColor=#D4E1F5;fontColor=#003366" parent="36" connectable="0" vertex="1">
          <mxGeometry x="1" relative="1" as="geometry">
            <mxPoint x="590" y="105" as="offset" />
          </mxGeometry>
        </mxCell>
        <mxCell id="45" value="" style="endArrow=open;endSize=12;startArrow=diamondThin;startSize=14;startFill=0;edgeStyle=orthogonalEdgeStyle;rounded=0" parent="1" source="23" target="22" edge="1">
          <mxGeometry x="519.3599999999999" y="180" as="geometry">
            <mxPoint x="519.3599999999999" y="180" as="sourcePoint" />
            <mxPoint x="679.3599999999999" y="180" as="targetPoint" />
          </mxGeometry>
        </mxCell>
        <mxCell id="46" value="0..n" style="resizable=0;align=left;verticalAlign=top;labelBackgroundColor=#ffffff;fontSize=10;strokeColor=#003366;shadow=1;fillColor=#D4E1F5;fontColor=#003366" parent="45" connectable="0" vertex="1">
          <mxGeometry x="-1" relative="1" as="geometry">
            <mxPoint x="8.919999999999618" as="offset" />
          </mxGeometry>
        </mxCell>
        <mxCell id="47" value="1" style="resizable=0;align=right;verticalAlign=top;labelBackgroundColor=#ffffff;fontSize=10;strokeColor=#003366;shadow=1;fillColor=#D4E1F5;fontColor=#003366" parent="45" connectable="0" vertex="1">
          <mxGeometry x="1" relative="1" as="geometry">
            <mxPoint x="-550" y="-159.99999999999997" as="offset" />
          </mxGeometry>
        </mxCell>
        <mxCell id="48" value="" style="endArrow=open;endSize=12;startArrow=diamondThin;startSize=14;startFill=0;edgeStyle=orthogonalEdgeStyle;exitX=1;exitY=0.25;rounded=0" parent="1" source="29" target="22" edge="1">
          <mxGeometry x="769.3599999999999" y="450" as="geometry">
            <mxPoint x="769.3599999999999" y="450" as="sourcePoint" />
            <mxPoint x="929.3599999999999" y="450" as="targetPoint" />
          </mxGeometry>
        </mxCell>
        <mxCell id="49" value="0..n" style="resizable=0;align=left;verticalAlign=top;labelBackgroundColor=#ffffff;fontSize=10;strokeColor=#003366;shadow=1;fillColor=#D4E1F5;fontColor=#003366" parent="48" connectable="0" vertex="1">
          <mxGeometry x="-1" relative="1" as="geometry">
            <mxPoint x="8.919999999999803" y="3.039999999999177" as="offset" />
          </mxGeometry>
        </mxCell>
        <mxCell id="50" value="1" style="resizable=0;align=right;verticalAlign=top;labelBackgroundColor=#ffffff;fontSize=10;strokeColor=#003366;shadow=1;fillColor=#D4E1F5;fontColor=#003366" parent="48" connectable="0" vertex="1">
          <mxGeometry x="1" relative="1" as="geometry">
            <mxPoint x="-10" as="offset" />
          </mxGeometry>
        </mxCell>
        <mxCell id="51" value="" style="endArrow=open;endSize=12;startArrow=diamondThin;startSize=14;startFill=0;edgeStyle=orthogonalEdgeStyle" parent="1" source="23" target="29" edge="1">
          <mxGeometry x="389.35999999999996" y="350" as="geometry">
            <mxPoint x="389.35999999999996" y="350" as="sourcePoint" />
            <mxPoint x="549.3599999999999" y="350" as="targetPoint" />
          </mxGeometry>
        </mxCell>
        <mxCell id="52" value="0..n" style="resizable=0;align=left;verticalAlign=top;labelBackgroundColor=#ffffff;fontSize=10;strokeColor=#003366;shadow=1;fillColor=#D4E1F5;fontColor=#003366" parent="51" connectable="0" vertex="1">
          <mxGeometry x="-1" relative="1" as="geometry">
            <mxPoint x="8.91999999999958" as="offset" />
          </mxGeometry>
        </mxCell>
        <mxCell id="53" value="1" style="resizable=0;align=right;verticalAlign=top;labelBackgroundColor=#ffffff;fontSize=10;strokeColor=#003366;shadow=1;fillColor=#D4E1F5;fontColor=#003366" parent="51" connectable="0" vertex="1">
          <mxGeometry x="1" relative="1" as="geometry">
            <mxPoint x="18.919999999999582" y="-21.960000000000644" as="offset" />
          </mxGeometry>
        </mxCell>
        <mxCell id="54" value="" style="endArrow=open;endSize=12;startArrow=diamondThin;startSize=14;startFill=0;edgeStyle=orthogonalEdgeStyle;exitX=0;exitY=0.25;rounded=0" parent="1" source="26" target="22" edge="1">
          <mxGeometry x="1209.36" y="170" as="geometry">
            <mxPoint x="1209.36" y="170" as="sourcePoint" />
            <mxPoint x="1369.36" y="170" as="targetPoint" />
          </mxGeometry>
        </mxCell>
        <mxCell id="55" value="0..n" style="resizable=0;align=left;verticalAlign=top;labelBackgroundColor=#ffffff;fontSize=10;strokeColor=#003366;shadow=1;fillColor=#D4E1F5;fontColor=#003366" parent="54" connectable="0" vertex="1">
          <mxGeometry x="-1" relative="1" as="geometry">
            <mxPoint x="-30" y="7.499999999999728" as="offset" />
          </mxGeometry>
        </mxCell>
        <mxCell id="56" value="1" style="resizable=0;align=right;verticalAlign=top;labelBackgroundColor=#ffffff;fontSize=10;strokeColor=#003366;shadow=1;fillColor=#D4E1F5;fontColor=#003366" parent="54" connectable="0" vertex="1">
          <mxGeometry x="1" relative="1" as="geometry">
            <mxPoint x="20" as="offset" />
          </mxGeometry>
        </mxCell>
        <mxCell id="57" value="" style="endArrow=open;endSize=12;startArrow=diamondThin;startSize=14;startFill=0;edgeStyle=orthogonalEdgeStyle" parent="1" source="27" target="26" edge="1">
          <mxGeometry x="1269.36" y="180" as="geometry">
            <mxPoint x="1269.36" y="180" as="sourcePoint" />
            <mxPoint x="1429.36" y="180" as="targetPoint" />
          </mxGeometry>
        </mxCell>
        <mxCell id="58" value="0..n" style="resizable=0;align=left;verticalAlign=top;labelBackgroundColor=#ffffff;fontSize=10;strokeColor=#003366;shadow=1;fillColor=#D4E1F5;fontColor=#003366" parent="57" connectable="0" vertex="1">
          <mxGeometry x="-1" relative="1" as="geometry">
            <mxPoint x="10" as="offset" />
          </mxGeometry>
        </mxCell>
        <mxCell id="59" value="1" style="resizable=0;align=right;verticalAlign=top;labelBackgroundColor=#ffffff;fontSize=10;strokeColor=#003366;shadow=1;fillColor=#D4E1F5;fontColor=#003366" parent="57" connectable="0" vertex="1">
          <mxGeometry x="1" relative="1" as="geometry">
            <mxPoint x="20" y="-20" as="offset" />
          </mxGeometry>
        </mxCell>
        <mxCell id="63" value="" style="endArrow=open;endSize=12;startArrow=diamondThin;startSize=14;startFill=0;edgeStyle=orthogonalEdgeStyle;entryX=0.75;entryY=1" parent="1" source="33" target="29" edge="1">
          <mxGeometry x="479.35999999999996" y="790" as="geometry">
            <mxPoint x="479.35999999999996" y="790" as="sourcePoint" />
            <mxPoint x="639.3599999999999" y="790" as="targetPoint" />
          </mxGeometry>
        </mxCell>
        <mxCell id="64" value="0..n" style="resizable=0;align=left;verticalAlign=top;labelBackgroundColor=#ffffff;fontSize=10;strokeColor=#003366;shadow=1;fillColor=#D4E1F5;fontColor=#003366" parent="63" connectable="0" vertex="1">
          <mxGeometry x="-1" relative="1" as="geometry">
            <mxPoint x="-30" y="-97.50000000000027" as="offset" />
          </mxGeometry>
        </mxCell>
        <mxCell id="65" value="1" style="resizable=0;align=right;verticalAlign=top;labelBackgroundColor=#ffffff;fontSize=10;strokeColor=#003366;shadow=1;fillColor=#D4E1F5;fontColor=#003366" parent="63" connectable="0" vertex="1">
          <mxGeometry x="1" relative="1" as="geometry">
            <mxPoint x="-11.080000000000421" as="offset" />
          </mxGeometry>
        </mxCell>
        <mxCell id="66" value="" style="endArrow=open;endSize=12;startArrow=diamondThin;startSize=14;startFill=0;edgeStyle=orthogonalEdgeStyle" parent="1" source="33" target="32" edge="1">
          <mxGeometry x="469.3599999999999" y="526.1600000000003" as="geometry">
            <mxPoint x="469.3599999999999" y="526.1600000000003" as="sourcePoint" />
            <mxPoint x="980" y="1061.1600000000005" as="targetPoint" />
          </mxGeometry>
        </mxCell>
        <mxCell id="67" value="0..n" style="resizable=0;align=left;verticalAlign=top;labelBackgroundColor=#ffffff;fontSize=10;strokeColor=#003366;shadow=1;fillColor=#D4E1F5;fontColor=#003366" parent="66" connectable="0" vertex="1">
          <mxGeometry x="-1" relative="1" as="geometry">
            <mxPoint x="10" as="offset" />
          </mxGeometry>
        </mxCell>
        <mxCell id="68" value="1" style="resizable=0;align=right;verticalAlign=top;labelBackgroundColor=#ffffff;fontSize=10;strokeColor=#003366;shadow=1;fillColor=#D4E1F5;fontColor=#003366" parent="66" connectable="0" vertex="1">
          <mxGeometry x="1" relative="1" as="geometry">
            <mxPoint x="-10" as="offset" />
          </mxGeometry>
        </mxCell>
        <mxCell id="72" value="" style="endArrow=open;endSize=12;startArrow=diamondThin;startSize=14;startFill=0;edgeStyle=orthogonalEdgeStyle;entryX=0.25;entryY=1;rounded=0" parent="1" source="34" target="29" edge="1">
          <mxGeometry x="419.35999999999996" y="820" as="geometry">
            <mxPoint x="419.35999999999996" y="820" as="sourcePoint" />
            <mxPoint x="579.3599999999999" y="820" as="targetPoint" />
          </mxGeometry>
        </mxCell>
        <mxCell id="73" value="0..n" style="resizable=0;align=left;verticalAlign=top;labelBackgroundColor=#ffffff;fontSize=10;strokeColor=#003366;shadow=1;fillColor=#D4E1F5;fontColor=#003366" parent="72" connectable="0" vertex="1">
          <mxGeometry x="-1" relative="1" as="geometry">
            <mxPoint x="10" y="-26.160000000000235" as="offset" />
          </mxGeometry>
        </mxCell>
        <mxCell id="74" value="1" style="resizable=0;align=right;verticalAlign=top;labelBackgroundColor=#ffffff;fontSize=10;strokeColor=#003366;shadow=1;fillColor=#D4E1F5;fontColor=#003366" parent="72" connectable="0" vertex="1">
          <mxGeometry x="1" relative="1" as="geometry">
            <mxPoint x="-11.080000000000421" as="offset" />
          </mxGeometry>
        </mxCell>
        <mxCell id="75" value="" style="endArrow=open;endSize=12;startArrow=diamondThin;startSize=14;startFill=0;edgeStyle=orthogonalEdgeStyle" parent="1" source="31" target="26" edge="1">
          <mxGeometry x="1079.36" y="560" as="geometry">
            <mxPoint x="1079.36" y="560" as="sourcePoint" />
            <mxPoint x="1239.36" y="560" as="targetPoint" />
          </mxGeometry>
        </mxCell>
        <mxCell id="76" value="0..n" style="resizable=0;align=left;verticalAlign=top;labelBackgroundColor=#ffffff;fontSize=10;strokeColor=#003366;shadow=1;fillColor=#D4E1F5;fontColor=#003366" parent="75" connectable="0" vertex="1">
          <mxGeometry x="-1" relative="1" as="geometry">
            <mxPoint x="10.00000000000009" y="-22.499999999999915" as="offset" />
          </mxGeometry>
        </mxCell>
        <mxCell id="77" value="1" style="resizable=0;align=right;verticalAlign=top;labelBackgroundColor=#ffffff;fontSize=10;strokeColor=#003366;shadow=1;fillColor=#D4E1F5;fontColor=#003366" parent="75" connectable="0" vertex="1">
          <mxGeometry x="1" relative="1" as="geometry">
            <mxPoint x="20" as="offset" />
          </mxGeometry>
        </mxCell>
        <mxCell id="78" value="" style="endArrow=open;endSize=12;startArrow=diamondThin;startSize=14;startFill=0;edgeStyle=orthogonalEdgeStyle" parent="1" source="27" target="30" edge="1">
          <mxGeometry x="1309.36" y="540" as="geometry">
            <mxPoint x="1309.36" y="540" as="sourcePoint" />
            <mxPoint x="1469.36" y="540" as="targetPoint" />
          </mxGeometry>
        </mxCell>
        <mxCell id="79" value="0..n" style="resizable=0;align=left;verticalAlign=top;labelBackgroundColor=#ffffff;fontSize=10;strokeColor=#003366;shadow=1;fillColor=#D4E1F5;fontColor=#003366" parent="78" connectable="0" vertex="1">
          <mxGeometry x="-1" relative="1" as="geometry">
            <mxPoint x="10" as="offset" />
          </mxGeometry>
        </mxCell>
        <mxCell id="80" value="1" style="resizable=0;align=right;verticalAlign=top;labelBackgroundColor=#ffffff;fontSize=10;strokeColor=#003366;shadow=1;fillColor=#D4E1F5;fontColor=#003366" parent="78" connectable="0" vertex="1">
          <mxGeometry x="1" relative="1" as="geometry">
            <mxPoint x="-10" as="offset" />
          </mxGeometry>
        </mxCell>
        <mxCell id="81" value="" style="endArrow=open;endSize=12;startArrow=diamondThin;startSize=14;startFill=0;edgeStyle=orthogonalEdgeStyle" parent="1" source="27" target="35" edge="1">
          <mxGeometry x="1119.36" y="540" as="geometry">
            <mxPoint x="1119.36" y="540" as="sourcePoint" />
            <mxPoint x="1279.36" y="540" as="targetPoint" />
          </mxGeometry>
        </mxCell>
        <mxCell id="82" value="0..n" style="resizable=0;align=left;verticalAlign=top;labelBackgroundColor=#ffffff;fontSize=10;strokeColor=#003366;shadow=1;fillColor=#D4E1F5;fontColor=#003366" parent="81" connectable="0" vertex="1">
          <mxGeometry x="-1" relative="1" as="geometry">
            <mxPoint x="10" y="-20" as="offset" />
          </mxGeometry>
        </mxCell>
        <mxCell id="83" value="1" style="resizable=0;align=right;verticalAlign=top;labelBackgroundColor=#ffffff;fontSize=10;strokeColor=#003366;shadow=1;fillColor=#D4E1F5;fontColor=#003366" parent="81" connectable="0" vertex="1">
          <mxGeometry x="1" relative="1" as="geometry">
            <mxPoint x="20" as="offset" />
          </mxGeometry>
        </mxCell>
        <mxCell id="84" value="" style="endArrow=open;endSize=12;startArrow=diamondThin;startSize=14;startFill=0;edgeStyle=orthogonalEdgeStyle" parent="1" source="27" target="22" edge="1">
          <mxGeometry x="1389.36" y="130" as="geometry">
            <mxPoint x="1389.36" y="130" as="sourcePoint" />
            <mxPoint x="1549.36" y="130" as="targetPoint" />
          </mxGeometry>
        </mxCell>
        <mxCell id="85" value="0..n" style="resizable=0;align=left;verticalAlign=top;labelBackgroundColor=#ffffff;fontSize=10;strokeColor=#003366;shadow=1;fillColor=#D4E1F5;fontColor=#003366" parent="84" connectable="0" vertex="1">
          <mxGeometry x="-1" relative="1" as="geometry">
            <mxPoint x="-30" as="offset" />
          </mxGeometry>
        </mxCell>
        <mxCell id="86" value="1" style="resizable=0;align=right;verticalAlign=top;labelBackgroundColor=#ffffff;fontSize=10;strokeColor=#003366;shadow=1;fillColor=#D4E1F5;fontColor=#003366" parent="84" connectable="0" vertex="1">
          <mxGeometry x="1" relative="1" as="geometry">
            <mxPoint x="20" y="2.7284841053187846e-13" as="offset" />
          </mxGeometry>
        </mxCell>
        <mxCell id="87" value="" style="endArrow=open;endSize=12;startArrow=diamondThin;startSize=14;startFill=0;edgeStyle=orthogonalEdgeStyle" parent="1" source="20" target="24" edge="1">
          <mxGeometry x="519.3599999999999" y="200" as="geometry">
            <mxPoint x="519.3599999999999" y="200" as="sourcePoint" />
            <mxPoint x="679.3599999999999" y="200" as="targetPoint" />
          </mxGeometry>
        </mxCell>
        <mxCell id="88" value="0..n" style="resizable=0;align=left;verticalAlign=top;labelBackgroundColor=#ffffff;fontSize=10;strokeColor=#003366;shadow=1;fillColor=#D4E1F5;fontColor=#003366" parent="87" connectable="0" vertex="1">
          <mxGeometry x="-1" relative="1" as="geometry">
            <mxPoint x="-40" as="offset" />
          </mxGeometry>
        </mxCell>
        <mxCell id="89" value="1" style="resizable=0;align=right;verticalAlign=top;labelBackgroundColor=#ffffff;fontSize=10;strokeColor=#003366;shadow=1;fillColor=#D4E1F5;fontColor=#003366" parent="87" connectable="0" vertex="1">
          <mxGeometry x="1" relative="1" as="geometry">
            <mxPoint x="19.99999999999981" y="-24.999999999999815" as="offset" />
          </mxGeometry>
        </mxCell>
        <mxCell id="90" value="" style="endArrow=open;endSize=12;startArrow=diamondThin;startSize=14;startFill=0;edgeStyle=orthogonalEdgeStyle" parent="1" source="25" target="21" edge="1">
          <mxGeometry x="620" y="340" as="geometry">
            <mxPoint x="620" y="340" as="sourcePoint" />
            <mxPoint x="780" y="340" as="targetPoint" />
          </mxGeometry>
        </mxCell>
        <mxCell id="91" value="0..n" style="resizable=0;align=left;verticalAlign=top;labelBackgroundColor=#ffffff;fontSize=10;strokeColor=#003366;shadow=1;fillColor=#D4E1F5;fontColor=#003366" parent="90" connectable="0" vertex="1">
          <mxGeometry x="-1" relative="1" as="geometry">
            <mxPoint x="10" as="offset" />
          </mxGeometry>
        </mxCell>
        <mxCell id="92" value="1" style="resizable=0;align=right;verticalAlign=top;labelBackgroundColor=#ffffff;fontSize=10;strokeColor=#003366;shadow=1;fillColor=#D4E1F5;fontColor=#003366" parent="90" connectable="0" vertex="1">
          <mxGeometry x="1" relative="1" as="geometry">
            <mxPoint x="20" y="-24.99999999999981" as="offset" />
          </mxGeometry>
        </mxCell>
        <mxCell id="99" value="" style="endArrow=open;endSize=12;startArrow=diamondThin;startSize=14;startFill=0;edgeStyle=orthogonalEdgeStyle" parent="1" source="29" target="24" edge="1">
          <mxGeometry x="369.35999999999996" y="360" as="geometry">
            <mxPoint x="369.35999999999996" y="360" as="sourcePoint" />
            <mxPoint x="529.3599999999999" y="360" as="targetPoint" />
            <Array as="points" />
          </mxGeometry>
        </mxCell>
        <mxCell id="100" value="0..n" style="resizable=0;align=left;verticalAlign=top;labelBackgroundColor=#ffffff;fontSize=10;strokeColor=#003366;shadow=1;fillColor=#D4E1F5;fontColor=#003366" parent="99" connectable="0" vertex="1">
          <mxGeometry x="-1" relative="1" as="geometry">
            <mxPoint x="-31.08000000000042" as="offset" />
          </mxGeometry>
        </mxCell>
        <mxCell id="101" value="1" style="resizable=0;align=right;verticalAlign=top;labelBackgroundColor=#ffffff;fontSize=10;strokeColor=#003366;shadow=1;fillColor=#D4E1F5;fontColor=#003366" parent="99" connectable="0" vertex="1">
          <mxGeometry x="1" relative="1" as="geometry">
            <mxPoint x="19.99999999999981" y="1.8947806286936006e-13" as="offset" />
          </mxGeometry>
        </mxCell>
        <mxCell id="102" value="Use" style="endArrow=open;endSize=12;dashed=1" parent="1" source="23" target="19" edge="1">
          <mxGeometry x="430" y="50" as="geometry">
            <mxPoint x="430" y="50" as="sourcePoint" />
            <mxPoint x="590" y="50" as="targetPoint" />
          </mxGeometry>
        </mxCell>
        <mxCell id="103" value="1" style="endArrow=open;endSize=12;startArrow=diamondThin;startSize=14;startFill=1;edgeStyle=orthogonalEdgeStyle;align=left;verticalAlign=bottom;" parent="1" source="21" target="20" edge="1">
          <mxGeometry x="-0.8181818181818175" y="4.999999999999702" relative="1" as="geometry">
            <mxPoint x="80" y="510" as="sourcePoint" />
            <mxPoint x="240" y="510" as="targetPoint" />
            <mxPoint as="offset" />
          </mxGeometry>
        </mxCell>
        <mxCell id="107" value="" style="endArrow=none;edgeStyle=orthogonalEdgeStyle;" parent="1" source="28" target="34" edge="1">
          <mxGeometry x="190" y="950" as="geometry">
            <mxPoint x="190" y="950" as="sourcePoint" />
            <mxPoint x="350" y="950" as="targetPoint" />
          </mxGeometry>
        </mxCell>
        <mxCell id="108" value="parent" style="resizable=0;align=left;verticalAlign=bottom;labelBackgroundColor=#ffffff;fontSize=10;strokeColor=#003366;shadow=1;fillColor=#D4E1F5;fontColor=#003366" parent="107" connectable="0" vertex="1">
          <mxGeometry x="-1" relative="1" as="geometry">
            <mxPoint x="10" y="-10" as="offset" />
          </mxGeometry>
        </mxCell>
        <mxCell id="109" value="child" style="resizable=0;align=right;verticalAlign=bottom;labelBackgroundColor=#ffffff;fontSize=10;strokeColor=#003366;shadow=1;fillColor=#D4E1F5;fontColor=#003366" parent="107" connectable="0" vertex="1">
          <mxGeometry x="1" relative="1" as="geometry">
            <mxPoint x="-10" y="23.83999999999977" as="offset" />
          </mxGeometry>
        </mxCell>
        <mxCell id="110" value="" style="endArrow=none;edgeStyle=orthogonalEdgeStyle;" parent="1" source="32" target="31" edge="1">
          <mxGeometry x="910" y="972.4999999999998" as="geometry">
            <mxPoint x="910" y="972.4999999999998" as="sourcePoint" />
            <mxPoint x="1070" y="972.4999999999998" as="targetPoint" />
          </mxGeometry>
        </mxCell>
        <mxCell id="111" value="parent" style="resizable=0;align=left;verticalAlign=bottom;labelBackgroundColor=#ffffff;fontSize=10;strokeColor=#003366;shadow=1;fillColor=#D4E1F5;fontColor=#003366" parent="110" connectable="0" vertex="1">
          <mxGeometry x="-1" relative="1" as="geometry">
            <mxPoint x="10" as="offset" />
          </mxGeometry>
        </mxCell>
        <mxCell id="112" value="child" style="resizable=0;align=right;verticalAlign=bottom;labelBackgroundColor=#ffffff;fontSize=10;strokeColor=#003366;shadow=1;fillColor=#D4E1F5;fontColor=#003366" parent="110" connectable="0" vertex="1">
          <mxGeometry x="1" relative="1" as="geometry">
            <mxPoint x="-10" y="25" as="offset" />
          </mxGeometry>
        </mxCell>
        <mxCell id="113" value="" style="endArrow=block;endFill=1;edgeStyle=orthogonalEdgeStyle;align=left;verticalAlign=top;entryX=1;entryY=0.75;exitX=0;exitY=0.75;rounded=0" parent="1" source="26" target="29" edge="1">
          <mxGeometry x="-1" relative="1" as="geometry">
            <mxPoint x="910" y="840" as="sourcePoint" />
            <mxPoint x="1070" y="840" as="targetPoint" />
            <Array as="points">
              <mxPoint x="910" y="808" />
              <mxPoint x="910" y="682" />
            </Array>
          </mxGeometry>
        </mxCell>
        <mxCell id="114" value="1" style="resizable=0;align=left;verticalAlign=bottom;labelBackgroundColor=#ffffff;fontSize=10" parent="113" connectable="0" vertex="1">
          <mxGeometry x="-1" relative="1" as="geometry">
            <mxPoint x="-19.99999999999982" y="2.499999999999909" as="offset" />
          </mxGeometry>
        </mxCell>
        <mxCell id="crxQdrDWMOCMF7tTb0ay-114" value="" style="outlineConnect=0;dashed=0;verticalLabelPosition=bottom;verticalAlign=top;align=center;html=1;shape=mxgraph.aws3.cloudformation;fillColor=#759C3E;gradientColor=none;" parent="1" vertex="1">
          <mxGeometry x="600" y="-220" width="76.5" height="93" as="geometry" />
        </mxCell>
        <mxCell id="crxQdrDWMOCMF7tTb0ay-115" value="" style="outlineConnect=0;dashed=0;verticalLabelPosition=bottom;verticalAlign=top;align=center;html=1;shape=mxgraph.aws3.cloudfront;fillColor=#F58536;gradientColor=none;" parent="1" vertex="1">
          <mxGeometry x="183.5" y="188.5" width="76.5" height="93" as="geometry" />
        </mxCell>
        <mxCell id="crxQdrDWMOCMF7tTb0ay-116" value="" style="outlineConnect=0;dashed=0;verticalLabelPosition=bottom;verticalAlign=top;align=center;html=1;shape=mxgraph.aws3.ec2;fillColor=#F58534;gradientColor=none;" parent="1" vertex="1">
          <mxGeometry x="770" y="-880" width="76.5" height="93" as="geometry" />
        </mxCell>
        <mxCell id="crxQdrDWMOCMF7tTb0ay-117" value="" style="outlineConnect=0;dashed=0;verticalLabelPosition=bottom;verticalAlign=top;align=center;html=1;shape=mxgraph.aws3.ami;fillColor=#F58534;gradientColor=none;" parent="1" vertex="1">
          <mxGeometry x="114.74999999999989" y="-1110" width="60" height="63" as="geometry" />
        </mxCell>
        <mxCell id="crxQdrDWMOCMF7tTb0ay-118" value="CloudFront" style="text;html=1;strokeColor=none;fillColor=none;align=center;verticalAlign=middle;whiteSpace=wrap;rounded=0;" parent="1" vertex="1">
          <mxGeometry x="120" y="86.63999999999999" width="60" height="30" as="geometry" />
        </mxCell>
        <mxCell id="crxQdrDWMOCMF7tTb0ay-119" value="&lt;font style=&quot;font-size: 18px;&quot;&gt;Ec2&lt;/font&gt;" style="text;html=1;strokeColor=none;fillColor=none;align=center;verticalAlign=middle;whiteSpace=wrap;rounded=0;" parent="1" vertex="1">
          <mxGeometry x="790" y="-930" width="60" height="30" as="geometry" />
        </mxCell>
        <mxCell id="crxQdrDWMOCMF7tTb0ay-121" value="" style="outlineConnect=0;dashed=0;verticalLabelPosition=bottom;verticalAlign=top;align=center;html=1;shape=mxgraph.aws3.rds;fillColor=#2E73B8;gradientColor=none;" parent="1" vertex="1">
          <mxGeometry x="1100" y="-868" width="72" height="81" as="geometry" />
        </mxCell>
        <mxCell id="crxQdrDWMOCMF7tTb0ay-122" value="" style="outlineConnect=0;dashed=0;verticalLabelPosition=bottom;verticalAlign=top;align=center;html=1;shape=mxgraph.aws3.route_53;fillColor=#F58536;gradientColor=none;" parent="1" vertex="1">
          <mxGeometry x="174.75" y="-742.5" width="70.5" height="85.5" as="geometry" />
        </mxCell>
        <mxCell id="crxQdrDWMOCMF7tTb0ay-123" value="&lt;font style=&quot;font-size: 18px;&quot;&gt;route 53&lt;/font&gt;" style="text;html=1;strokeColor=none;fillColor=none;align=center;verticalAlign=middle;whiteSpace=wrap;rounded=0;" parent="1" vertex="1">
          <mxGeometry x="180" y="-800" width="60" height="30" as="geometry" />
        </mxCell>
        <mxCell id="crxQdrDWMOCMF7tTb0ay-124" value="" style="outlineConnect=0;dashed=0;verticalLabelPosition=bottom;verticalAlign=top;align=center;html=1;shape=mxgraph.aws3.elastic_load_balancing;fillColor=#F58534;gradientColor=none;" parent="1" vertex="1">
          <mxGeometry x="351.75" y="-747" width="76.5" height="93" as="geometry" />
        </mxCell>
        <mxCell id="crxQdrDWMOCMF7tTb0ay-125" value="&lt;font style=&quot;font-size: 18px;&quot;&gt;ELB&lt;/font&gt;" style="text;html=1;strokeColor=none;fillColor=none;align=center;verticalAlign=middle;whiteSpace=wrap;rounded=0;" parent="1" vertex="1">
          <mxGeometry x="360" y="-800" width="60" height="30" as="geometry" />
        </mxCell>
        <mxCell id="crxQdrDWMOCMF7tTb0ay-128" value="" style="edgeStyle=orthogonalEdgeStyle;rounded=0;orthogonalLoop=1;jettySize=auto;html=1;" parent="1" source="crxQdrDWMOCMF7tTb0ay-130" target="crxQdrDWMOCMF7tTb0ay-122" edge="1">
          <mxGeometry relative="1" as="geometry">
            <Array as="points">
              <mxPoint x="120" y="-700" />
              <mxPoint x="120" y="-700" />
            </Array>
          </mxGeometry>
        </mxCell>
        <mxCell id="crxQdrDWMOCMF7tTb0ay-126" value="Actor" style="shape=umlActor;verticalLabelPosition=bottom;verticalAlign=top;html=1;outlineConnect=0;" parent="1" vertex="1">
          <mxGeometry x="30" y="-730.5" width="40" height="60" as="geometry" />
        </mxCell>
        <mxCell id="crxQdrDWMOCMF7tTb0ay-129" value="" style="edgeStyle=orthogonalEdgeStyle;rounded=0;orthogonalLoop=1;jettySize=auto;html=1;" parent="1" source="crxQdrDWMOCMF7tTb0ay-126" target="crxQdrDWMOCMF7tTb0ay-130" edge="1">
          <mxGeometry relative="1" as="geometry">
            <mxPoint x="70" y="-701" as="sourcePoint" />
            <mxPoint x="175" y="-701" as="targetPoint" />
            <Array as="points" />
          </mxGeometry>
        </mxCell>
        <mxCell id="crxQdrDWMOCMF7tTb0ay-130" value="access service URL Token" style="text;html=1;strokeColor=none;fillColor=none;align=center;verticalAlign=middle;whiteSpace=wrap;rounded=0;" parent="1" vertex="1">
          <mxGeometry x="80" y="-715" width="60" height="30" as="geometry" />
        </mxCell>
        <mxCell id="crxQdrDWMOCMF7tTb0ay-131" value="" style="endArrow=classic;html=1;rounded=0;" parent="1" edge="1">
          <mxGeometry width="50" height="50" relative="1" as="geometry">
            <mxPoint x="250" y="-700" as="sourcePoint" />
            <mxPoint x="340" y="-700" as="targetPoint" />
          </mxGeometry>
        </mxCell>
        <mxCell id="crxQdrDWMOCMF7tTb0ay-132" value="forward to &lt;br&gt;ELB DNS&lt;br&gt;" style="edgeLabel;html=1;align=center;verticalAlign=middle;resizable=0;points=[];" parent="crxQdrDWMOCMF7tTb0ay-131" vertex="1" connectable="0">
          <mxGeometry x="-0.1079" y="-1" relative="1" as="geometry">
            <mxPoint as="offset" />
          </mxGeometry>
        </mxCell>
        <mxCell id="crxQdrDWMOCMF7tTb0ay-133" value="LB&lt;br&gt;Target group&lt;br&gt;(Health check)" style="whiteSpace=wrap;html=1;aspect=fixed;" parent="1" vertex="1">
          <mxGeometry x="560" y="-737" width="80" height="80" as="geometry" />
        </mxCell>
        <mxCell id="crxQdrDWMOCMF7tTb0ay-134" value="" style="endArrow=classic;html=1;rounded=0;entryX=-0.087;entryY=0.45;entryDx=0;entryDy=0;entryPerimeter=0;" parent="1" target="crxQdrDWMOCMF7tTb0ay-133" edge="1">
          <mxGeometry width="50" height="50" relative="1" as="geometry">
            <mxPoint x="440" y="-700" as="sourcePoint" />
            <mxPoint x="520" y="-700" as="targetPoint" />
          </mxGeometry>
        </mxCell>
        <mxCell id="crxQdrDWMOCMF7tTb0ay-135" value="Forward to Target group" style="edgeLabel;html=1;align=center;verticalAlign=middle;resizable=0;points=[];" parent="crxQdrDWMOCMF7tTb0ay-134" vertex="1" connectable="0">
          <mxGeometry x="-0.45" y="2" relative="1" as="geometry">
            <mxPoint x="27" y="-18" as="offset" />
          </mxGeometry>
        </mxCell>
        <mxCell id="crxQdrDWMOCMF7tTb0ay-136" value="" style="outlineConnect=0;dashed=0;verticalLabelPosition=bottom;verticalAlign=top;align=center;html=1;shape=mxgraph.aws3.ec2;fillColor=#F58534;gradientColor=none;" parent="1" vertex="1">
          <mxGeometry x="770" y="-715" width="76.5" height="93" as="geometry" />
        </mxCell>
        <mxCell id="crxQdrDWMOCMF7tTb0ay-139" value="" style="outlineConnect=0;dashed=0;verticalLabelPosition=bottom;verticalAlign=top;align=center;html=1;shape=mxgraph.aws3.ec2;fillColor=#F58534;gradientColor=none;" parent="1" vertex="1">
          <mxGeometry x="760" y="-550" width="76.5" height="93" as="geometry" />
        </mxCell>
        <mxCell id="crxQdrDWMOCMF7tTb0ay-140" value="" style="outlineConnect=0;dashed=0;verticalLabelPosition=bottom;verticalAlign=top;align=center;html=1;shape=mxgraph.aws3.elasticache;fillColor=#2E73B8;gradientColor=none;" parent="1" vertex="1">
          <mxGeometry x="1112.25" y="-631" width="67.5" height="81" as="geometry" />
        </mxCell>
        <mxCell id="crxQdrDWMOCMF7tTb0ay-141" value="" style="endArrow=classic;html=1;rounded=0;entryX=0;entryY=0.79;entryDx=0;entryDy=0;entryPerimeter=0;" parent="1" target="crxQdrDWMOCMF7tTb0ay-116" edge="1">
          <mxGeometry width="50" height="50" relative="1" as="geometry">
            <mxPoint x="650" y="-720" as="sourcePoint" />
            <mxPoint x="700" y="-770" as="targetPoint" />
          </mxGeometry>
        </mxCell>
        <mxCell id="crxQdrDWMOCMF7tTb0ay-142" value="" style="endArrow=classic;html=1;rounded=0;entryX=0;entryY=0.5;entryDx=0;entryDy=0;entryPerimeter=0;" parent="1" target="crxQdrDWMOCMF7tTb0ay-136" edge="1">
          <mxGeometry width="50" height="50" relative="1" as="geometry">
            <mxPoint x="650" y="-720" as="sourcePoint" />
            <mxPoint x="720" y="-690" as="targetPoint" />
          </mxGeometry>
        </mxCell>
        <mxCell id="crxQdrDWMOCMF7tTb0ay-143" value="" style="endArrow=classic;html=1;rounded=0;entryX=0;entryY=0.5;entryDx=0;entryDy=0;entryPerimeter=0;" parent="1" target="crxQdrDWMOCMF7tTb0ay-139" edge="1">
          <mxGeometry width="50" height="50" relative="1" as="geometry">
            <mxPoint x="660" y="-700" as="sourcePoint" />
            <mxPoint x="680" y="-590" as="targetPoint" />
          </mxGeometry>
        </mxCell>
        <mxCell id="crxQdrDWMOCMF7tTb0ay-144" value="" style="endArrow=classic;html=1;rounded=0;" parent="1" edge="1">
          <mxGeometry width="50" height="50" relative="1" as="geometry">
            <mxPoint x="850" y="-500" as="sourcePoint" />
            <mxPoint x="1100" y="-570" as="targetPoint" />
          </mxGeometry>
        </mxCell>
        <mxCell id="crxQdrDWMOCMF7tTb0ay-145" value="" style="endArrow=classic;html=1;rounded=0;" parent="1" edge="1">
          <mxGeometry width="50" height="50" relative="1" as="geometry">
            <mxPoint x="860" y="-660" as="sourcePoint" />
            <mxPoint x="1100" y="-600" as="targetPoint" />
          </mxGeometry>
        </mxCell>
        <mxCell id="crxQdrDWMOCMF7tTb0ay-146" value="" style="endArrow=classic;html=1;rounded=0;" parent="1" edge="1">
          <mxGeometry width="50" height="50" relative="1" as="geometry">
            <mxPoint x="850" y="-830" as="sourcePoint" />
            <mxPoint x="1100" y="-610" as="targetPoint" />
          </mxGeometry>
        </mxCell>
        <mxCell id="crxQdrDWMOCMF7tTb0ay-147" value="&lt;font style=&quot;font-size: 18px;&quot;&gt;Elastic cache&lt;/font&gt;" style="text;html=1;strokeColor=none;fillColor=none;align=center;verticalAlign=middle;whiteSpace=wrap;rounded=0;" parent="1" vertex="1">
          <mxGeometry x="1230" y="-599" width="60" height="30" as="geometry" />
        </mxCell>
        <mxCell id="crxQdrDWMOCMF7tTb0ay-148" value="&lt;font style=&quot;font-size: 18px;&quot;&gt;RDS&lt;/font&gt;" style="text;html=1;strokeColor=none;fillColor=none;align=center;verticalAlign=middle;whiteSpace=wrap;rounded=0;" parent="1" vertex="1">
          <mxGeometry x="1209" y="-830" width="60" height="30" as="geometry" />
        </mxCell>
        <mxCell id="crxQdrDWMOCMF7tTb0ay-149" value="" style="endArrow=classic;html=1;rounded=0;entryX=0;entryY=0.346;entryDx=0;entryDy=0;entryPerimeter=0;" parent="1" target="crxQdrDWMOCMF7tTb0ay-121" edge="1">
          <mxGeometry width="50" height="50" relative="1" as="geometry">
            <mxPoint x="850" y="-840" as="sourcePoint" />
            <mxPoint x="1070" y="-840" as="targetPoint" />
          </mxGeometry>
        </mxCell>
        <mxCell id="crxQdrDWMOCMF7tTb0ay-150" value="" style="endArrow=classic;html=1;rounded=0;" parent="1" target="crxQdrDWMOCMF7tTb0ay-121" edge="1">
          <mxGeometry width="50" height="50" relative="1" as="geometry">
            <mxPoint x="850" y="-670" as="sourcePoint" />
            <mxPoint x="900" y="-720" as="targetPoint" />
          </mxGeometry>
        </mxCell>
        <mxCell id="crxQdrDWMOCMF7tTb0ay-151" value="" style="endArrow=classic;html=1;rounded=0;" parent="1" target="crxQdrDWMOCMF7tTb0ay-121" edge="1">
          <mxGeometry width="50" height="50" relative="1" as="geometry">
            <mxPoint x="840" y="-510" as="sourcePoint" />
            <mxPoint x="890" y="-560" as="targetPoint" />
          </mxGeometry>
        </mxCell>
        <mxCell id="crxQdrDWMOCMF7tTb0ay-152" value="" style="outlineConnect=0;dashed=0;verticalLabelPosition=bottom;verticalAlign=top;align=center;html=1;shape=mxgraph.aws3.auto_scaling;fillColor=#F58534;gradientColor=none;" parent="1" vertex="1">
          <mxGeometry x="540.25" y="-1060" width="79.5" height="76.5" as="geometry" />
        </mxCell>
        <mxCell id="crxQdrDWMOCMF7tTb0ay-159" value="" style="outlineConnect=0;dashed=0;verticalLabelPosition=bottom;verticalAlign=top;align=center;html=1;shape=mxgraph.aws3.waf;fillColor=#759C3E;gradientColor=none;" parent="1" vertex="1">
          <mxGeometry x="343.5" y="-540" width="76.5" height="93" as="geometry" />
        </mxCell>
        <mxCell id="crxQdrDWMOCMF7tTb0ay-164" value="&lt;font style=&quot;font-size: 14px;&quot;&gt;Security group :&lt;br style=&quot;border-color: var(--border-color);&quot;&gt;Inbound rule&lt;br style=&quot;border-color: var(--border-color);&quot;&gt;Outbound rule&lt;/font&gt;" style="shape=ext;double=1;rounded=0;whiteSpace=wrap;html=1;" parent="1" vertex="1">
          <mxGeometry x="250" y="-649" width="120" height="80" as="geometry" />
        </mxCell>
        <mxCell id="crxQdrDWMOCMF7tTb0ay-165" value="&lt;font style=&quot;font-size: 18px;&quot;&gt;WAF&lt;/font&gt;" style="text;html=1;strokeColor=none;fillColor=none;align=center;verticalAlign=middle;whiteSpace=wrap;rounded=0;" parent="1" vertex="1">
          <mxGeometry x="260" y="-500" width="60" height="30" as="geometry" />
        </mxCell>
        <mxCell id="crxQdrDWMOCMF7tTb0ay-166" value="" style="endArrow=classic;html=1;rounded=0;" parent="1" source="crxQdrDWMOCMF7tTb0ay-159" target="crxQdrDWMOCMF7tTb0ay-158" edge="1">
          <mxGeometry width="50" height="50" relative="1" as="geometry">
            <mxPoint x="480" y="-490" as="sourcePoint" />
            <mxPoint x="530" y="-540" as="targetPoint" />
          </mxGeometry>
        </mxCell>
        <mxCell id="crxQdrDWMOCMF7tTb0ay-168" value="&lt;font style=&quot;font-size: 18px;&quot;&gt;Auto scaning group&lt;/font&gt;" style="text;html=1;strokeColor=none;fillColor=none;align=center;verticalAlign=middle;whiteSpace=wrap;rounded=0;" parent="1" vertex="1">
          <mxGeometry x="550" y="-1120" width="60" height="30" as="geometry" />
        </mxCell>
        <mxCell id="crxQdrDWMOCMF7tTb0ay-169" value="" style="endArrow=classic;html=1;rounded=0;exitX=0.5;exitY=1;exitDx=0;exitDy=0;exitPerimeter=0;entryX=0.5;entryY=0;entryDx=0;entryDy=0;" parent="1" source="crxQdrDWMOCMF7tTb0ay-152" target="crxQdrDWMOCMF7tTb0ay-133" edge="1">
          <mxGeometry width="50" height="50" relative="1" as="geometry">
            <mxPoint x="560" y="-830" as="sourcePoint" />
            <mxPoint x="610" y="-880" as="targetPoint" />
          </mxGeometry>
        </mxCell>
        <mxCell id="crxQdrDWMOCMF7tTb0ay-170" value="&lt;font style=&quot;font-size: 18px;&quot;&gt;Launch configuration&lt;/font&gt;" style="rounded=0;whiteSpace=wrap;html=1;" parent="1" vertex="1">
          <mxGeometry x="280" y="-1090" width="120" height="60" as="geometry" />
        </mxCell>
        <mxCell id="crxQdrDWMOCMF7tTb0ay-171" value="" style="endArrow=classic;html=1;rounded=0;exitX=0;exitY=0.5;exitDx=0;exitDy=0;" parent="1" source="crxQdrDWMOCMF7tTb0ay-170" edge="1">
          <mxGeometry width="50" height="50" relative="1" as="geometry">
            <mxPoint x="210" y="-960" as="sourcePoint" />
            <mxPoint x="180" y="-1070" as="targetPoint" />
          </mxGeometry>
        </mxCell>
        <mxCell id="crxQdrDWMOCMF7tTb0ay-172" value="" style="endArrow=classic;html=1;rounded=0;exitX=1.022;exitY=0.638;exitDx=0;exitDy=0;exitPerimeter=0;" parent="1" source="crxQdrDWMOCMF7tTb0ay-170" edge="1">
          <mxGeometry width="50" height="50" relative="1" as="geometry">
            <mxPoint x="400" y="-940" as="sourcePoint" />
            <mxPoint x="530" y="-1020" as="targetPoint" />
          </mxGeometry>
        </mxCell>
        <mxCell id="crxQdrDWMOCMF7tTb0ay-173" value="" style="outlineConnect=0;dashed=0;verticalLabelPosition=bottom;verticalAlign=top;align=center;html=1;shape=mxgraph.aws3.cloudwatch;fillColor=#759C3E;gradientColor=none;" parent="1" vertex="1">
          <mxGeometry x="826" y="-1125" width="82.5" height="93" as="geometry" />
        </mxCell>
        <mxCell id="crxQdrDWMOCMF7tTb0ay-174" value="Cloud watch Alarm" style="text;strokeColor=none;fillColor=none;html=1;fontSize=24;fontStyle=1;verticalAlign=middle;align=center;" parent="1" vertex="1">
          <mxGeometry x="930" y="-1160" width="100" height="40" as="geometry" />
        </mxCell>
        <mxCell id="crxQdrDWMOCMF7tTb0ay-176" value="" style="sketch=0;outlineConnect=0;fontColor=#232F3E;gradientColor=none;fillColor=#D45B07;strokeColor=none;dashed=0;verticalLabelPosition=bottom;verticalAlign=top;align=center;html=1;fontSize=12;fontStyle=0;aspect=fixed;pointerEvents=1;shape=mxgraph.aws4.auto_scaling2;" parent="1" vertex="1">
          <mxGeometry x="680" y="-1107" width="48" height="48" as="geometry" />
        </mxCell>
        <mxCell id="crxQdrDWMOCMF7tTb0ay-177" value="" style="endArrow=classic;html=1;rounded=0;" parent="1" target="crxQdrDWMOCMF7tTb0ay-176" edge="1">
          <mxGeometry width="50" height="50" relative="1" as="geometry">
            <mxPoint x="820" y="-1090" as="sourcePoint" />
            <mxPoint x="810" y="-1020" as="targetPoint" />
          </mxGeometry>
        </mxCell>
        <mxCell id="crxQdrDWMOCMF7tTb0ay-178" value="" style="endArrow=classic;html=1;rounded=0;" parent="1" source="crxQdrDWMOCMF7tTb0ay-176" edge="1">
          <mxGeometry width="50" height="50" relative="1" as="geometry">
            <mxPoint x="660" y="-970" as="sourcePoint" />
            <mxPoint x="630" y="-1010" as="targetPoint" />
          </mxGeometry>
        </mxCell>
        <mxCell id="crxQdrDWMOCMF7tTb0ay-181" value="&lt;font style=&quot;font-size: 18px;&quot;&gt;Auto&lt;font style=&quot;&quot;&gt; &lt;/font&gt;scan policy&lt;/font&gt;" style="text;html=1;strokeColor=none;fillColor=none;align=center;verticalAlign=middle;whiteSpace=wrap;rounded=0;" parent="1" vertex="1">
          <mxGeometry x="685" y="-1160" width="60" height="30" as="geometry" />
        </mxCell>
        <mxCell id="crxQdrDWMOCMF7tTb0ay-182" value="&lt;font style=&quot;font-size: 18px;&quot;&gt;Monitor CPU usage...&lt;/font&gt;" style="text;html=1;strokeColor=none;fillColor=none;align=center;verticalAlign=middle;whiteSpace=wrap;rounded=0;" parent="1" vertex="1">
          <mxGeometry x="940" y="-1076" width="60" height="30" as="geometry" />
        </mxCell>
        <mxCell id="crxQdrDWMOCMF7tTb0ay-183" value="" style="sketch=0;points=[[0,0,0],[0.25,0,0],[0.5,0,0],[0.75,0,0],[1,0,0],[0,1,0],[0.25,1,0],[0.5,1,0],[0.75,1,0],[1,1,0],[0,0.25,0],[0,0.5,0],[0,0.75,0],[1,0.25,0],[1,0.5,0],[1,0.75,0]];outlineConnect=0;fontColor=#232F3E;gradientColor=#FF4F8B;gradientDirection=north;fillColor=#BC1356;strokeColor=#ffffff;dashed=0;verticalLabelPosition=bottom;verticalAlign=top;align=center;html=1;fontSize=12;fontStyle=0;aspect=fixed;shape=mxgraph.aws4.resourceIcon;resIcon=mxgraph.aws4.sns;" parent="1" vertex="1">
          <mxGeometry x="1180" y="-1100" width="78" height="78" as="geometry" />
        </mxCell>
        <mxCell id="crxQdrDWMOCMF7tTb0ay-184" value="" style="endArrow=classic;html=1;rounded=0;" parent="1" edge="1">
          <mxGeometry width="50" height="50" relative="1" as="geometry">
            <mxPoint x="1020" y="-1080" as="sourcePoint" />
            <mxPoint x="1160" y="-1060" as="targetPoint" />
          </mxGeometry>
        </mxCell>
        <mxCell id="crxQdrDWMOCMF7tTb0ay-185" value="SNS" style="text;strokeColor=none;fillColor=none;html=1;fontSize=24;fontStyle=1;verticalAlign=middle;align=center;" parent="1" vertex="1">
          <mxGeometry x="1180" y="-1150" width="100" height="40" as="geometry" />
        </mxCell>
        <mxCell id="crxQdrDWMOCMF7tTb0ay-186" value="" style="endArrow=classic;html=1;rounded=0;" parent="1" source="crxQdrDWMOCMF7tTb0ay-187" edge="1">
          <mxGeometry width="50" height="50" relative="1" as="geometry">
            <mxPoint x="640" y="-220" as="sourcePoint" />
            <mxPoint x="640" y="-330" as="targetPoint" />
          </mxGeometry>
        </mxCell>
        <mxCell id="crxQdrDWMOCMF7tTb0ay-190" value="" style="endArrow=classic;html=1;rounded=0;" parent="1" target="crxQdrDWMOCMF7tTb0ay-187" edge="1">
          <mxGeometry width="50" height="50" relative="1" as="geometry">
            <mxPoint x="640" y="-220" as="sourcePoint" />
            <mxPoint x="640" y="-330" as="targetPoint" />
            <Array as="points">
              <mxPoint x="650" y="-220" />
            </Array>
          </mxGeometry>
        </mxCell>
        <mxCell id="crxQdrDWMOCMF7tTb0ay-187" value="&lt;font style=&quot;font-size: 18px;&quot;&gt;Create or update&lt;/font&gt;" style="text;html=1;align=center;verticalAlign=middle;resizable=0;points=[];autosize=1;strokeColor=none;fillColor=none;" parent="1" vertex="1">
          <mxGeometry x="561.75" y="-295" width="160" height="40" as="geometry" />
        </mxCell>
        <mxCell id="crxQdrDWMOCMF7tTb0ay-191" value="&lt;font style=&quot;font-size: 18px;&quot;&gt;Token service&lt;/font&gt;" style="rounded=0;whiteSpace=wrap;html=1;" parent="1" vertex="1">
          <mxGeometry x="1040" y="-240" width="120" height="60" as="geometry" />
        </mxCell>
        <mxCell id="crxQdrDWMOCMF7tTb0ay-193" value="" style="endArrow=classic;html=1;rounded=0;" parent="1" edge="1">
          <mxGeometry width="50" height="50" relative="1" as="geometry">
            <mxPoint x="880" y="-390" as="sourcePoint" />
            <mxPoint x="1100" y="-250" as="targetPoint" />
          </mxGeometry>
        </mxCell>
        <mxCell id="crxQdrDWMOCMF7tTb0ay-194" value="&lt;font style=&quot;font-size: 18px;&quot;&gt;Verify token&lt;/font&gt;" style="edgeLabel;html=1;align=center;verticalAlign=middle;resizable=0;points=[];" parent="crxQdrDWMOCMF7tTb0ay-193" vertex="1" connectable="0">
          <mxGeometry x="0.2544" y="9" relative="1" as="geometry">
            <mxPoint x="1" as="offset" />
          </mxGeometry>
        </mxCell>
      </root>
    </mxGraphModel>
  </diagram>
  <diagram id="_TT76ZwFqgGhPxO2r8ad" name="第 2 页">
    <mxGraphModel dx="2693" dy="3601" grid="1" gridSize="10" guides="1" tooltips="1" connect="1" arrows="1" fold="1" page="1" pageScale="1" pageWidth="827" pageHeight="1169" math="0" shadow="0">
      <root>
        <mxCell id="0" />
        <mxCell id="1" parent="0" />
        <mxCell id="UbeaX1HTSsms9ThU97Ol-1" value="Public subnet" style="points=[[0,0],[0.25,0],[0.5,0],[0.75,0],[1,0],[1,0.25],[1,0.5],[1,0.75],[1,1],[0.75,1],[0.5,1],[0.25,1],[0,1],[0,0.75],[0,0.5],[0,0.25]];outlineConnect=0;gradientColor=none;html=1;whiteSpace=wrap;fontSize=12;fontStyle=0;container=1;pointerEvents=0;collapsible=0;recursiveResize=0;shape=mxgraph.aws4.group;grIcon=mxgraph.aws4.group_security_group;grStroke=0;strokeColor=#248814;fillColor=#E9F3E6;verticalAlign=top;align=left;spacingLeft=30;fontColor=#248814;dashed=0;" vertex="1" parent="1">
          <mxGeometry x="252.63" y="-920" width="260" height="420" as="geometry" />
        </mxCell>
        <mxCell id="UbeaX1HTSsms9ThU97Ol-2" value="" style="rounded=1;arcSize=10;dashed=1;strokeColor=#ff0000;fillColor=none;gradientColor=none;dashPattern=8 4;strokeWidth=2;" vertex="1" parent="1">
          <mxGeometry x="282.88" y="-840" width="199.5" height="199.5" as="geometry" />
        </mxCell>
        <mxCell id="UbeaX1HTSsms9ThU97Ol-3" value="Private subnet" style="points=[[0,0],[0.25,0],[0.5,0],[0.75,0],[1,0],[1,0.25],[1,0.5],[1,0.75],[1,1],[0.75,1],[0.5,1],[0.25,1],[0,1],[0,0.75],[0,0.5],[0,0.25]];outlineConnect=0;gradientColor=none;html=1;whiteSpace=wrap;fontSize=12;fontStyle=0;container=1;pointerEvents=0;collapsible=0;recursiveResize=0;shape=mxgraph.aws4.group;grIcon=mxgraph.aws4.group_security_group;grStroke=0;strokeColor=#147EBA;fillColor=#E6F2F8;verticalAlign=top;align=left;spacingLeft=30;fontColor=#147EBA;dashed=0;" vertex="1" parent="1">
          <mxGeometry x="682.63" y="-1010" width="630" height="530" as="geometry" />
        </mxCell>
        <mxCell id="UbeaX1HTSsms9ThU97Ol-4" value="VPC" style="sketch=0;outlineConnect=0;gradientColor=none;html=1;whiteSpace=wrap;fontSize=12;fontStyle=0;shape=mxgraph.aws4.group;grIcon=mxgraph.aws4.group_vpc;strokeColor=#879196;fillColor=none;verticalAlign=top;align=left;spacingLeft=30;fontColor=#879196;dashed=0;" vertex="1" parent="1">
          <mxGeometry x="142.63" y="-1020" width="1245" height="596.51" as="geometry" />
        </mxCell>
        <mxCell id="UbeaX1HTSsms9ThU97Ol-5" value="" style="outlineConnect=0;dashed=0;verticalLabelPosition=bottom;verticalAlign=top;align=center;html=1;shape=mxgraph.aws3.cloudformation;fillColor=#759C3E;gradientColor=none;" vertex="1" parent="1">
          <mxGeometry x="609.63" y="-330" width="80" height="93" as="geometry" />
        </mxCell>
        <mxCell id="UbeaX1HTSsms9ThU97Ol-6" value="" style="outlineConnect=0;dashed=0;verticalLabelPosition=bottom;verticalAlign=top;align=center;html=1;shape=mxgraph.aws3.ec2;fillColor=#F58534;gradientColor=none;" vertex="1" parent="1">
          <mxGeometry x="762.63" y="-950" width="76.5" height="93" as="geometry" />
        </mxCell>
        <mxCell id="UbeaX1HTSsms9ThU97Ol-7" value="" style="outlineConnect=0;dashed=0;verticalLabelPosition=bottom;verticalAlign=top;align=center;html=1;shape=mxgraph.aws3.ami;fillColor=#F58534;gradientColor=none;" vertex="1" parent="1">
          <mxGeometry x="127.37999999999988" y="-1300" width="60" height="63" as="geometry" />
        </mxCell>
        <mxCell id="UbeaX1HTSsms9ThU97Ol-8" value="" style="outlineConnect=0;dashed=0;verticalLabelPosition=bottom;verticalAlign=top;align=center;html=1;shape=mxgraph.aws3.rds;fillColor=#2E73B8;gradientColor=none;" vertex="1" parent="1">
          <mxGeometry x="1092.63" y="-938" width="72" height="81" as="geometry" />
        </mxCell>
        <mxCell id="UbeaX1HTSsms9ThU97Ol-9" value="" style="outlineConnect=0;dashed=0;verticalLabelPosition=bottom;verticalAlign=top;align=center;html=1;shape=mxgraph.aws3.route_53;fillColor=#F58536;gradientColor=none;" vertex="1" parent="1">
          <mxGeometry x="52.13" y="-812.5" width="70.5" height="85.5" as="geometry" />
        </mxCell>
        <mxCell id="UbeaX1HTSsms9ThU97Ol-10" value="&lt;font style=&quot;font-size: 18px;&quot;&gt;route 53&lt;/font&gt;" style="text;html=1;strokeColor=none;fillColor=none;align=center;verticalAlign=middle;whiteSpace=wrap;rounded=0;" vertex="1" parent="1">
          <mxGeometry x="42.63" y="-857" width="60" height="30" as="geometry" />
        </mxCell>
        <mxCell id="UbeaX1HTSsms9ThU97Ol-11" value="" style="outlineConnect=0;dashed=0;verticalLabelPosition=bottom;verticalAlign=top;align=center;html=1;shape=mxgraph.aws3.elastic_load_balancing;fillColor=#F58534;gradientColor=none;" vertex="1" parent="1">
          <mxGeometry x="344.38" y="-817" width="76.5" height="93" as="geometry" />
        </mxCell>
        <mxCell id="UbeaX1HTSsms9ThU97Ol-12" value="&lt;font style=&quot;font-size: 18px;&quot;&gt;ELB&lt;/font&gt;" style="text;html=1;strokeColor=none;fillColor=none;align=center;verticalAlign=middle;whiteSpace=wrap;rounded=0;" vertex="1" parent="1">
          <mxGeometry x="352.63" y="-870" width="60" height="30" as="geometry" />
        </mxCell>
        <mxCell id="UbeaX1HTSsms9ThU97Ol-13" value="" style="edgeStyle=orthogonalEdgeStyle;rounded=0;orthogonalLoop=1;jettySize=auto;html=1;" edge="1" parent="1" source="UbeaX1HTSsms9ThU97Ol-16" target="UbeaX1HTSsms9ThU97Ol-9">
          <mxGeometry relative="1" as="geometry">
            <Array as="points">
              <mxPoint x="112.63" y="-770" />
              <mxPoint x="112.63" y="-770" />
            </Array>
          </mxGeometry>
        </mxCell>
        <mxCell id="UbeaX1HTSsms9ThU97Ol-14" value="Actor" style="shape=umlActor;verticalLabelPosition=bottom;verticalAlign=top;html=1;outlineConnect=0;" vertex="1" parent="1">
          <mxGeometry x="-227.37" y="-799.75" width="40" height="60" as="geometry" />
        </mxCell>
        <mxCell id="UbeaX1HTSsms9ThU97Ol-15" value="" style="edgeStyle=orthogonalEdgeStyle;rounded=0;orthogonalLoop=1;jettySize=auto;html=1;" edge="1" parent="1" source="UbeaX1HTSsms9ThU97Ol-14" target="UbeaX1HTSsms9ThU97Ol-16">
          <mxGeometry relative="1" as="geometry">
            <mxPoint x="62.63" y="-771" as="sourcePoint" />
            <mxPoint x="167.63" y="-771" as="targetPoint" />
            <Array as="points" />
          </mxGeometry>
        </mxCell>
        <mxCell id="UbeaX1HTSsms9ThU97Ol-16" value="access service URL Token" style="text;html=1;strokeColor=none;fillColor=none;align=center;verticalAlign=middle;whiteSpace=wrap;rounded=0;" vertex="1" parent="1">
          <mxGeometry x="-107.37" y="-785" width="60" height="30" as="geometry" />
        </mxCell>
        <mxCell id="UbeaX1HTSsms9ThU97Ol-17" value="" style="endArrow=classic;html=1;rounded=0;" edge="1" parent="1" source="UbeaX1HTSsms9ThU97Ol-9">
          <mxGeometry width="50" height="50" relative="1" as="geometry">
            <mxPoint x="242.63" y="-770" as="sourcePoint" />
            <mxPoint x="332.63" y="-770" as="targetPoint" />
          </mxGeometry>
        </mxCell>
        <mxCell id="UbeaX1HTSsms9ThU97Ol-18" value="forward to &lt;br&gt;ELB DNS&lt;br&gt;" style="edgeLabel;html=1;align=center;verticalAlign=middle;resizable=0;points=[];" vertex="1" connectable="0" parent="UbeaX1HTSsms9ThU97Ol-17">
          <mxGeometry x="-0.1079" y="-1" relative="1" as="geometry">
            <mxPoint as="offset" />
          </mxGeometry>
        </mxCell>
        <mxCell id="UbeaX1HTSsms9ThU97Ol-19" value="LB&lt;br&gt;Target group&lt;br&gt;(Health check)" style="whiteSpace=wrap;html=1;aspect=fixed;" vertex="1" parent="1">
          <mxGeometry x="552.63" y="-807" width="80" height="80" as="geometry" />
        </mxCell>
        <mxCell id="UbeaX1HTSsms9ThU97Ol-20" value="" style="endArrow=classic;html=1;rounded=0;entryX=-0.087;entryY=0.45;entryDx=0;entryDy=0;entryPerimeter=0;" edge="1" parent="1" target="UbeaX1HTSsms9ThU97Ol-19">
          <mxGeometry width="50" height="50" relative="1" as="geometry">
            <mxPoint x="432.63" y="-770" as="sourcePoint" />
            <mxPoint x="512.63" y="-770" as="targetPoint" />
          </mxGeometry>
        </mxCell>
        <mxCell id="UbeaX1HTSsms9ThU97Ol-21" value="Forward to Target group" style="edgeLabel;html=1;align=center;verticalAlign=middle;resizable=0;points=[];" vertex="1" connectable="0" parent="UbeaX1HTSsms9ThU97Ol-20">
          <mxGeometry x="-0.45" y="2" relative="1" as="geometry">
            <mxPoint x="27" y="-18" as="offset" />
          </mxGeometry>
        </mxCell>
        <mxCell id="UbeaX1HTSsms9ThU97Ol-22" value="" style="outlineConnect=0;dashed=0;verticalLabelPosition=bottom;verticalAlign=top;align=center;html=1;shape=mxgraph.aws3.ec2;fillColor=#F58534;gradientColor=none;" vertex="1" parent="1">
          <mxGeometry x="762.63" y="-785" width="76.5" height="93" as="geometry" />
        </mxCell>
        <mxCell id="UbeaX1HTSsms9ThU97Ol-23" value="" style="outlineConnect=0;dashed=0;verticalLabelPosition=bottom;verticalAlign=top;align=center;html=1;shape=mxgraph.aws3.ec2;fillColor=#F58534;gradientColor=none;" vertex="1" parent="1">
          <mxGeometry x="752.63" y="-620" width="76.5" height="93" as="geometry" />
        </mxCell>
        <mxCell id="UbeaX1HTSsms9ThU97Ol-24" value="" style="outlineConnect=0;dashed=0;verticalLabelPosition=bottom;verticalAlign=top;align=center;html=1;shape=mxgraph.aws3.elasticache;fillColor=#2E73B8;gradientColor=none;" vertex="1" parent="1">
          <mxGeometry x="1104.88" y="-701" width="67.5" height="81" as="geometry" />
        </mxCell>
        <mxCell id="UbeaX1HTSsms9ThU97Ol-25" value="" style="endArrow=classic;html=1;rounded=0;entryX=0;entryY=0.79;entryDx=0;entryDy=0;entryPerimeter=0;" edge="1" parent="1" target="UbeaX1HTSsms9ThU97Ol-6">
          <mxGeometry width="50" height="50" relative="1" as="geometry">
            <mxPoint x="642.63" y="-790" as="sourcePoint" />
            <mxPoint x="692.63" y="-840" as="targetPoint" />
          </mxGeometry>
        </mxCell>
        <mxCell id="UbeaX1HTSsms9ThU97Ol-26" value="" style="endArrow=classic;html=1;rounded=0;entryX=0;entryY=0.5;entryDx=0;entryDy=0;entryPerimeter=0;" edge="1" parent="1" target="UbeaX1HTSsms9ThU97Ol-22">
          <mxGeometry width="50" height="50" relative="1" as="geometry">
            <mxPoint x="642.63" y="-790" as="sourcePoint" />
            <mxPoint x="712.63" y="-760" as="targetPoint" />
          </mxGeometry>
        </mxCell>
        <mxCell id="UbeaX1HTSsms9ThU97Ol-27" value="" style="endArrow=classic;html=1;rounded=0;entryX=0;entryY=0.5;entryDx=0;entryDy=0;entryPerimeter=0;" edge="1" parent="1" target="UbeaX1HTSsms9ThU97Ol-23">
          <mxGeometry width="50" height="50" relative="1" as="geometry">
            <mxPoint x="652.63" y="-770" as="sourcePoint" />
            <mxPoint x="672.63" y="-660" as="targetPoint" />
          </mxGeometry>
        </mxCell>
        <mxCell id="UbeaX1HTSsms9ThU97Ol-28" value="" style="endArrow=classic;html=1;rounded=0;" edge="1" parent="1">
          <mxGeometry width="50" height="50" relative="1" as="geometry">
            <mxPoint x="842.63" y="-570" as="sourcePoint" />
            <mxPoint x="1092.63" y="-640" as="targetPoint" />
          </mxGeometry>
        </mxCell>
        <mxCell id="UbeaX1HTSsms9ThU97Ol-29" value="" style="endArrow=classic;html=1;rounded=0;" edge="1" parent="1">
          <mxGeometry width="50" height="50" relative="1" as="geometry">
            <mxPoint x="852.63" y="-730" as="sourcePoint" />
            <mxPoint x="1092.63" y="-670" as="targetPoint" />
          </mxGeometry>
        </mxCell>
        <mxCell id="UbeaX1HTSsms9ThU97Ol-30" value="" style="endArrow=classic;html=1;rounded=0;" edge="1" parent="1">
          <mxGeometry width="50" height="50" relative="1" as="geometry">
            <mxPoint x="842.63" y="-900" as="sourcePoint" />
            <mxPoint x="1092.63" y="-680" as="targetPoint" />
          </mxGeometry>
        </mxCell>
        <mxCell id="UbeaX1HTSsms9ThU97Ol-31" value="&lt;font style=&quot;font-size: 18px;&quot;&gt;Elastic cache&lt;/font&gt;" style="text;html=1;strokeColor=none;fillColor=none;align=center;verticalAlign=middle;whiteSpace=wrap;rounded=0;" vertex="1" parent="1">
          <mxGeometry x="1222.63" y="-669" width="60" height="30" as="geometry" />
        </mxCell>
        <mxCell id="UbeaX1HTSsms9ThU97Ol-32" value="&lt;font style=&quot;font-size: 18px;&quot;&gt;RDS&lt;/font&gt;" style="text;html=1;strokeColor=none;fillColor=none;align=center;verticalAlign=middle;whiteSpace=wrap;rounded=0;" vertex="1" parent="1">
          <mxGeometry x="1201.63" y="-900" width="60" height="30" as="geometry" />
        </mxCell>
        <mxCell id="UbeaX1HTSsms9ThU97Ol-33" value="" style="endArrow=classic;html=1;rounded=0;entryX=0;entryY=0.346;entryDx=0;entryDy=0;entryPerimeter=0;" edge="1" parent="1" target="UbeaX1HTSsms9ThU97Ol-8">
          <mxGeometry width="50" height="50" relative="1" as="geometry">
            <mxPoint x="842.63" y="-910" as="sourcePoint" />
            <mxPoint x="1062.63" y="-910" as="targetPoint" />
          </mxGeometry>
        </mxCell>
        <mxCell id="UbeaX1HTSsms9ThU97Ol-34" value="" style="endArrow=classic;html=1;rounded=0;" edge="1" parent="1" target="UbeaX1HTSsms9ThU97Ol-8">
          <mxGeometry width="50" height="50" relative="1" as="geometry">
            <mxPoint x="842.63" y="-740" as="sourcePoint" />
            <mxPoint x="892.63" y="-790" as="targetPoint" />
          </mxGeometry>
        </mxCell>
        <mxCell id="UbeaX1HTSsms9ThU97Ol-35" value="" style="endArrow=classic;html=1;rounded=0;" edge="1" parent="1" target="UbeaX1HTSsms9ThU97Ol-8">
          <mxGeometry width="50" height="50" relative="1" as="geometry">
            <mxPoint x="832.63" y="-580" as="sourcePoint" />
            <mxPoint x="882.63" y="-630" as="targetPoint" />
          </mxGeometry>
        </mxCell>
        <mxCell id="UbeaX1HTSsms9ThU97Ol-36" value="" style="outlineConnect=0;dashed=0;verticalLabelPosition=bottom;verticalAlign=top;align=center;html=1;shape=mxgraph.aws3.auto_scaling;fillColor=#F58534;gradientColor=none;" vertex="1" parent="1">
          <mxGeometry x="552.88" y="-1266" width="79.5" height="76.5" as="geometry" />
        </mxCell>
        <mxCell id="UbeaX1HTSsms9ThU97Ol-37" value="" style="outlineConnect=0;dashed=0;verticalLabelPosition=bottom;verticalAlign=top;align=center;html=1;shape=mxgraph.aws3.waf;fillColor=#759C3E;gradientColor=none;" vertex="1" parent="1">
          <mxGeometry x="344.38" y="-330" width="76.5" height="93" as="geometry" />
        </mxCell>
        <mxCell id="UbeaX1HTSsms9ThU97Ol-38" value="&lt;font style=&quot;font-size: 18px;&quot;&gt;WAF&lt;/font&gt;" style="text;html=1;strokeColor=none;fillColor=none;align=center;verticalAlign=middle;whiteSpace=wrap;rounded=0;" vertex="1" parent="1">
          <mxGeometry x="252.63" y="-570" width="60" height="30" as="geometry" />
        </mxCell>
        <mxCell id="UbeaX1HTSsms9ThU97Ol-39" value="" style="endArrow=classic;html=1;rounded=0;" edge="1" parent="1" source="UbeaX1HTSsms9ThU97Ol-37" target="UbeaX1HTSsms9ThU97Ol-2">
          <mxGeometry width="50" height="50" relative="1" as="geometry">
            <mxPoint x="472.63" y="-560" as="sourcePoint" />
            <mxPoint x="522.63" y="-610" as="targetPoint" />
          </mxGeometry>
        </mxCell>
        <mxCell id="UbeaX1HTSsms9ThU97Ol-40" value="&lt;font style=&quot;font-size: 18px;&quot;&gt;Auto scaning group&lt;/font&gt;" style="text;html=1;strokeColor=none;fillColor=none;align=center;verticalAlign=middle;whiteSpace=wrap;rounded=0;" vertex="1" parent="1">
          <mxGeometry x="562.63" y="-1310" width="60" height="30" as="geometry" />
        </mxCell>
        <mxCell id="UbeaX1HTSsms9ThU97Ol-41" value="&lt;font style=&quot;font-size: 18px;&quot;&gt;Launch configuration&lt;/font&gt;" style="rounded=0;whiteSpace=wrap;html=1;" vertex="1" parent="1">
          <mxGeometry x="292.63" y="-1280" width="120" height="60" as="geometry" />
        </mxCell>
        <mxCell id="UbeaX1HTSsms9ThU97Ol-42" value="" style="endArrow=classic;html=1;rounded=0;exitX=0;exitY=0.5;exitDx=0;exitDy=0;" edge="1" parent="1" source="UbeaX1HTSsms9ThU97Ol-41">
          <mxGeometry width="50" height="50" relative="1" as="geometry">
            <mxPoint x="222.63" y="-1150" as="sourcePoint" />
            <mxPoint x="192.63" y="-1260" as="targetPoint" />
          </mxGeometry>
        </mxCell>
        <mxCell id="UbeaX1HTSsms9ThU97Ol-43" value="" style="endArrow=classic;html=1;rounded=0;exitX=1.022;exitY=0.638;exitDx=0;exitDy=0;exitPerimeter=0;" edge="1" parent="1" source="UbeaX1HTSsms9ThU97Ol-41">
          <mxGeometry width="50" height="50" relative="1" as="geometry">
            <mxPoint x="412.63" y="-1130" as="sourcePoint" />
            <mxPoint x="542.63" y="-1210" as="targetPoint" />
          </mxGeometry>
        </mxCell>
        <mxCell id="UbeaX1HTSsms9ThU97Ol-44" value="" style="outlineConnect=0;dashed=0;verticalLabelPosition=bottom;verticalAlign=top;align=center;html=1;shape=mxgraph.aws3.cloudwatch;fillColor=#759C3E;gradientColor=none;" vertex="1" parent="1">
          <mxGeometry x="838.63" y="-1315" width="82.5" height="93" as="geometry" />
        </mxCell>
        <mxCell id="UbeaX1HTSsms9ThU97Ol-45" value="Cloud watch Alarm" style="text;strokeColor=none;fillColor=none;html=1;fontSize=24;fontStyle=1;verticalAlign=middle;align=center;" vertex="1" parent="1">
          <mxGeometry x="942.63" y="-1350" width="100" height="40" as="geometry" />
        </mxCell>
        <mxCell id="UbeaX1HTSsms9ThU97Ol-46" value="" style="sketch=0;outlineConnect=0;fontColor=#232F3E;gradientColor=none;fillColor=#D45B07;strokeColor=none;dashed=0;verticalLabelPosition=bottom;verticalAlign=top;align=center;html=1;fontSize=12;fontStyle=0;aspect=fixed;pointerEvents=1;shape=mxgraph.aws4.auto_scaling2;" vertex="1" parent="1">
          <mxGeometry x="692.63" y="-1297" width="48" height="48" as="geometry" />
        </mxCell>
        <mxCell id="UbeaX1HTSsms9ThU97Ol-47" value="" style="endArrow=classic;html=1;rounded=0;" edge="1" parent="1" target="UbeaX1HTSsms9ThU97Ol-46">
          <mxGeometry width="50" height="50" relative="1" as="geometry">
            <mxPoint x="832.63" y="-1280" as="sourcePoint" />
            <mxPoint x="822.63" y="-1210" as="targetPoint" />
          </mxGeometry>
        </mxCell>
        <mxCell id="UbeaX1HTSsms9ThU97Ol-48" value="" style="endArrow=classic;html=1;rounded=0;" edge="1" parent="1" source="UbeaX1HTSsms9ThU97Ol-46">
          <mxGeometry width="50" height="50" relative="1" as="geometry">
            <mxPoint x="672.63" y="-1160" as="sourcePoint" />
            <mxPoint x="642.63" y="-1200" as="targetPoint" />
          </mxGeometry>
        </mxCell>
        <mxCell id="UbeaX1HTSsms9ThU97Ol-49" value="&lt;font style=&quot;font-size: 18px;&quot;&gt;Auto&lt;font style=&quot;&quot;&gt; &lt;/font&gt;scan policy&lt;/font&gt;" style="text;html=1;strokeColor=none;fillColor=none;align=center;verticalAlign=middle;whiteSpace=wrap;rounded=0;" vertex="1" parent="1">
          <mxGeometry x="697.63" y="-1350" width="60" height="30" as="geometry" />
        </mxCell>
        <mxCell id="UbeaX1HTSsms9ThU97Ol-50" value="&lt;font style=&quot;font-size: 18px;&quot;&gt;Monitor CPU usage...&lt;/font&gt;" style="text;html=1;strokeColor=none;fillColor=none;align=center;verticalAlign=middle;whiteSpace=wrap;rounded=0;" vertex="1" parent="1">
          <mxGeometry x="952.63" y="-1266" width="60" height="30" as="geometry" />
        </mxCell>
        <mxCell id="UbeaX1HTSsms9ThU97Ol-51" value="" style="sketch=0;points=[[0,0,0],[0.25,0,0],[0.5,0,0],[0.75,0,0],[1,0,0],[0,1,0],[0.25,1,0],[0.5,1,0],[0.75,1,0],[1,1,0],[0,0.25,0],[0,0.5,0],[0,0.75,0],[1,0.25,0],[1,0.5,0],[1,0.75,0]];outlineConnect=0;fontColor=#232F3E;gradientColor=#FF4F8B;gradientDirection=north;fillColor=#BC1356;strokeColor=#ffffff;dashed=0;verticalLabelPosition=bottom;verticalAlign=top;align=center;html=1;fontSize=12;fontStyle=0;aspect=fixed;shape=mxgraph.aws4.resourceIcon;resIcon=mxgraph.aws4.sns;" vertex="1" parent="1">
          <mxGeometry x="1192.63" y="-1290" width="78" height="78" as="geometry" />
        </mxCell>
        <mxCell id="UbeaX1HTSsms9ThU97Ol-52" value="" style="endArrow=classic;html=1;rounded=0;" edge="1" parent="1">
          <mxGeometry width="50" height="50" relative="1" as="geometry">
            <mxPoint x="1032.63" y="-1270" as="sourcePoint" />
            <mxPoint x="1172.63" y="-1250" as="targetPoint" />
          </mxGeometry>
        </mxCell>
        <mxCell id="UbeaX1HTSsms9ThU97Ol-53" value="SNS" style="text;strokeColor=none;fillColor=none;html=1;fontSize=24;fontStyle=1;verticalAlign=middle;align=center;" vertex="1" parent="1">
          <mxGeometry x="1192.63" y="-1340" width="100" height="40" as="geometry" />
        </mxCell>
        <mxCell id="UbeaX1HTSsms9ThU97Ol-54" value="" style="endArrow=classic;html=1;rounded=0;" edge="1" parent="1" source="UbeaX1HTSsms9ThU97Ol-55">
          <mxGeometry width="50" height="50" relative="1" as="geometry">
            <mxPoint x="632.63" y="-290" as="sourcePoint" />
            <mxPoint x="632.63" y="-400" as="targetPoint" />
          </mxGeometry>
        </mxCell>
        <mxCell id="UbeaX1HTSsms9ThU97Ol-55" value="&lt;font style=&quot;font-size: 18px;&quot;&gt;Create or update&lt;/font&gt;" style="text;html=1;align=center;verticalAlign=middle;resizable=0;points=[];autosize=1;strokeColor=none;fillColor=none;" vertex="1" parent="1">
          <mxGeometry x="560.63" y="-370" width="160" height="40" as="geometry" />
        </mxCell>
        <mxCell id="UbeaX1HTSsms9ThU97Ol-56" value="&lt;font style=&quot;font-size: 18px;&quot;&gt;Token service&lt;/font&gt;" style="rounded=0;whiteSpace=wrap;html=1;" vertex="1" parent="1">
          <mxGeometry x="1111.63" y="-140" width="120" height="60" as="geometry" />
        </mxCell>
        <mxCell id="UbeaX1HTSsms9ThU97Ol-57" value="" style="endArrow=classic;html=1;rounded=0;" edge="1" parent="1" source="UbeaX1HTSsms9ThU97Ol-62" target="UbeaX1HTSsms9ThU97Ol-56">
          <mxGeometry width="50" height="50" relative="1" as="geometry">
            <mxPoint x="1012.63" y="-360" as="sourcePoint" />
            <mxPoint x="1092.63" y="-320" as="targetPoint" />
            <Array as="points">
              <mxPoint x="1072.63" y="-110" />
            </Array>
          </mxGeometry>
        </mxCell>
        <mxCell id="UbeaX1HTSsms9ThU97Ol-58" value="&lt;font style=&quot;font-size: 18px;&quot;&gt;Verify token&lt;/font&gt;" style="edgeLabel;html=1;align=center;verticalAlign=middle;resizable=0;points=[];" vertex="1" connectable="0" parent="UbeaX1HTSsms9ThU97Ol-57">
          <mxGeometry x="0.2544" y="9" relative="1" as="geometry">
            <mxPoint x="1" as="offset" />
          </mxGeometry>
        </mxCell>
        <mxCell id="UbeaX1HTSsms9ThU97Ol-59" value="" style="rounded=1;arcSize=10;dashed=1;strokeColor=#ff0000;fillColor=none;gradientColor=none;dashPattern=8 4;strokeWidth=2;" vertex="1" parent="1">
          <mxGeometry x="714.38" y="-967.12" width="199.5" height="457.25" as="geometry" />
        </mxCell>
        <mxCell id="UbeaX1HTSsms9ThU97Ol-60" value="Auto Scaling group" style="points=[[0,0],[0.25,0],[0.5,0],[0.75,0],[1,0],[1,0.25],[1,0.5],[1,0.75],[1,1],[0.75,1],[0.5,1],[0.25,1],[0,1],[0,0.75],[0,0.5],[0,0.25]];outlineConnect=0;gradientColor=none;html=1;whiteSpace=wrap;fontSize=12;fontStyle=0;container=1;pointerEvents=0;collapsible=0;recursiveResize=0;shape=mxgraph.aws4.groupCenter;grIcon=mxgraph.aws4.group_auto_scaling_group;grStroke=1;strokeColor=#D86613;fillColor=none;verticalAlign=top;align=center;fontColor=#D86613;dashed=1;spacingTop=25;" vertex="1" parent="1">
          <mxGeometry x="689.63" y="-976.99" width="303" height="486.99" as="geometry" />
        </mxCell>
        <mxCell id="UbeaX1HTSsms9ThU97Ol-61" value="&lt;font color=&quot;#ff3333&quot; style=&quot;font-size: 14px;&quot;&gt;Security Group&lt;/font&gt;" style="text;html=1;strokeColor=none;fillColor=none;align=center;verticalAlign=middle;whiteSpace=wrap;rounded=0;" vertex="1" parent="UbeaX1HTSsms9ThU97Ol-60">
          <mxGeometry x="203" y="416.99" width="60" height="30" as="geometry" />
        </mxCell>
        <mxCell id="UbeaX1HTSsms9ThU97Ol-62" value="AWS Cloud" style="sketch=0;outlineConnect=0;gradientColor=none;html=1;whiteSpace=wrap;fontSize=12;fontStyle=0;shape=mxgraph.aws4.group;grIcon=mxgraph.aws4.group_aws_cloud;strokeColor=#AAB7B8;fillColor=none;verticalAlign=top;align=left;spacingLeft=30;fontColor=#AAB7B8;dashed=0;" vertex="1" parent="1">
          <mxGeometry x="12.629999999999999" y="-1080" width="1400" height="870" as="geometry" />
        </mxCell>
        <mxCell id="UbeaX1HTSsms9ThU97Ol-63" style="edgeStyle=orthogonalEdgeStyle;rounded=0;orthogonalLoop=1;jettySize=auto;html=1;exitX=0.5;exitY=1;exitDx=0;exitDy=0;" edge="1" parent="1" source="UbeaX1HTSsms9ThU97Ol-10" target="UbeaX1HTSsms9ThU97Ol-10">
          <mxGeometry relative="1" as="geometry" />
        </mxCell>
        <mxCell id="UbeaX1HTSsms9ThU97Ol-64" value="" style="sketch=0;outlineConnect=0;fontColor=#232F3E;gradientColor=none;fillColor=#3F8624;strokeColor=none;dashed=0;verticalLabelPosition=bottom;verticalAlign=top;align=center;html=1;fontSize=12;fontStyle=0;aspect=fixed;pointerEvents=1;shape=mxgraph.aws4.iot_analytics_pipeline;" vertex="1" parent="1">
          <mxGeometry x="601.63" y="-131" width="78" height="42" as="geometry" />
        </mxCell>
        <mxCell id="UbeaX1HTSsms9ThU97Ol-65" value="" style="endArrow=classic;html=1;rounded=0;" edge="1" parent="1" target="UbeaX1HTSsms9ThU97Ol-62">
          <mxGeometry width="50" height="50" relative="1" as="geometry">
            <mxPoint x="640" y="-140" as="sourcePoint" />
            <mxPoint x="690" y="-190" as="targetPoint" />
          </mxGeometry>
        </mxCell>
        <mxCell id="UbeaX1HTSsms9ThU97Ol-66" value="&lt;font style=&quot;font-size: 19px;&quot;&gt;Pipeline&lt;/font&gt;" style="text;html=1;strokeColor=none;fillColor=none;align=center;verticalAlign=middle;whiteSpace=wrap;rounded=0;" vertex="1" parent="1">
          <mxGeometry x="520" y="-118" width="60" height="30" as="geometry" />
        </mxCell>
      </root>
    </mxGraphModel>
  </diagram>
  <diagram id="mxlcQm1mrjNZkgUrkTVx" name="第 3 页">
    <mxGraphModel dx="2693" dy="2432" grid="1" gridSize="10" guides="1" tooltips="1" connect="1" arrows="1" fold="1" page="1" pageScale="1" pageWidth="827" pageHeight="1169" math="0" shadow="0">
      <root>
        <mxCell id="0" />
        <mxCell id="1" parent="0" />
        <mxCell id="yVazCNSj6oucUNMWv78p-1" value="Public subnet" style="points=[[0,0],[0.25,0],[0.5,0],[0.75,0],[1,0],[1,0.25],[1,0.5],[1,0.75],[1,1],[0.75,1],[0.5,1],[0.25,1],[0,1],[0,0.75],[0,0.5],[0,0.25]];outlineConnect=0;gradientColor=none;html=1;whiteSpace=wrap;fontSize=12;fontStyle=0;container=1;pointerEvents=0;collapsible=0;recursiveResize=0;shape=mxgraph.aws4.group;grIcon=mxgraph.aws4.group_security_group;grStroke=0;strokeColor=#248814;fillColor=#E9F3E6;verticalAlign=top;align=left;spacingLeft=30;fontColor=#248814;dashed=0;" vertex="1" parent="1">
          <mxGeometry x="250.26" y="-970" width="264.74" height="430" as="geometry" />
        </mxCell>
        <mxCell id="yVazCNSj6oucUNMWv78p-11" value="&lt;font style=&quot;font-size: 18px;&quot;&gt;ELB&lt;/font&gt;" style="text;html=1;strokeColor=none;fillColor=none;align=center;verticalAlign=middle;whiteSpace=wrap;rounded=0;" vertex="1" parent="yVazCNSj6oucUNMWv78p-1">
          <mxGeometry x="102.36999999999999" y="101.24" width="60" height="30" as="geometry" />
        </mxCell>
        <mxCell id="yVazCNSj6oucUNMWv78p-52" value="Availability zone" style="sketch=0;outlineConnect=0;gradientColor=none;html=1;whiteSpace=wrap;fontSize=12;fontStyle=0;shape=mxgraph.aws4.group;grIcon=mxgraph.aws4.group_availability_zone;strokeColor=#545B64;fillColor=none;verticalAlign=top;align=left;spacingLeft=30;fontColor=#545B64;dashed=1;" vertex="1" parent="yVazCNSj6oucUNMWv78p-1">
          <mxGeometry x="37.370000000000005" y="60" width="190" height="270" as="geometry" />
        </mxCell>
        <mxCell id="yVazCNSj6oucUNMWv78p-3" value="Private subnet" style="points=[[0,0],[0.25,0],[0.5,0],[0.75,0],[1,0],[1,0.25],[1,0.5],[1,0.75],[1,1],[0.75,1],[0.5,1],[0.25,1],[0,1],[0,0.75],[0,0.5],[0,0.25]];outlineConnect=0;gradientColor=none;html=1;whiteSpace=wrap;fontSize=12;fontStyle=0;container=1;pointerEvents=0;collapsible=0;recursiveResize=0;shape=mxgraph.aws4.group;grIcon=mxgraph.aws4.group_security_group;grStroke=0;strokeColor=#147EBA;fillColor=#E6F2F8;verticalAlign=top;align=left;spacingLeft=30;fontColor=#147EBA;dashed=0;" vertex="1" parent="1">
          <mxGeometry x="650" y="-1040" width="676.18" height="584.75" as="geometry" />
        </mxCell>
        <mxCell id="yVazCNSj6oucUNMWv78p-4" value="VPC" style="sketch=0;outlineConnect=0;gradientColor=none;html=1;whiteSpace=wrap;fontSize=12;fontStyle=0;shape=mxgraph.aws4.group;grIcon=mxgraph.aws4.group_vpc;strokeColor=#879196;fillColor=none;verticalAlign=top;align=left;spacingLeft=30;fontColor=#879196;dashed=0;" vertex="1" parent="1">
          <mxGeometry x="150" y="-1060" width="1257.63" height="676.51" as="geometry" />
        </mxCell>
        <mxCell id="yVazCNSj6oucUNMWv78p-5" value="" style="outlineConnect=0;dashed=0;verticalLabelPosition=bottom;verticalAlign=top;align=center;html=1;shape=mxgraph.aws3.cloudformation;fillColor=#759C3E;gradientColor=none;" vertex="1" parent="1">
          <mxGeometry x="609.63" y="-330" width="80" height="93" as="geometry" />
        </mxCell>
        <mxCell id="yVazCNSj6oucUNMWv78p-8" value="" style="outlineConnect=0;dashed=0;verticalLabelPosition=bottom;verticalAlign=top;align=center;html=1;shape=mxgraph.aws3.route_53;fillColor=#F58536;gradientColor=none;" vertex="1" parent="1">
          <mxGeometry x="52.13" y="-812.5" width="70.5" height="85.5" as="geometry" />
        </mxCell>
        <mxCell id="yVazCNSj6oucUNMWv78p-9" value="&lt;font style=&quot;font-size: 18px;&quot;&gt;route 53&lt;/font&gt;" style="text;html=1;strokeColor=none;fillColor=none;align=center;verticalAlign=middle;whiteSpace=wrap;rounded=0;" vertex="1" parent="1">
          <mxGeometry x="42.63" y="-857" width="60" height="30" as="geometry" />
        </mxCell>
        <mxCell id="yVazCNSj6oucUNMWv78p-10" value="" style="outlineConnect=0;dashed=0;verticalLabelPosition=bottom;verticalAlign=top;align=center;html=1;shape=mxgraph.aws3.elastic_load_balancing;fillColor=#F58534;gradientColor=none;" vertex="1" parent="1">
          <mxGeometry x="344.38" y="-817" width="76.5" height="93" as="geometry" />
        </mxCell>
        <mxCell id="yVazCNSj6oucUNMWv78p-12" value="" style="edgeStyle=orthogonalEdgeStyle;rounded=0;orthogonalLoop=1;jettySize=auto;html=1;" edge="1" parent="1" source="yVazCNSj6oucUNMWv78p-15" target="yVazCNSj6oucUNMWv78p-8">
          <mxGeometry relative="1" as="geometry">
            <Array as="points">
              <mxPoint x="112.63" y="-770" />
              <mxPoint x="112.63" y="-770" />
            </Array>
          </mxGeometry>
        </mxCell>
        <mxCell id="yVazCNSj6oucUNMWv78p-13" value="Actor" style="shape=umlActor;verticalLabelPosition=bottom;verticalAlign=top;html=1;outlineConnect=0;" vertex="1" parent="1">
          <mxGeometry x="-227.37" y="-799.75" width="40" height="60" as="geometry" />
        </mxCell>
        <mxCell id="yVazCNSj6oucUNMWv78p-14" value="" style="edgeStyle=orthogonalEdgeStyle;rounded=0;orthogonalLoop=1;jettySize=auto;html=1;" edge="1" parent="1" source="yVazCNSj6oucUNMWv78p-13" target="yVazCNSj6oucUNMWv78p-15">
          <mxGeometry relative="1" as="geometry">
            <mxPoint x="62.63" y="-771" as="sourcePoint" />
            <mxPoint x="167.63" y="-771" as="targetPoint" />
            <Array as="points" />
          </mxGeometry>
        </mxCell>
        <mxCell id="yVazCNSj6oucUNMWv78p-15" value="access service URL Token" style="text;html=1;strokeColor=none;fillColor=none;align=center;verticalAlign=middle;whiteSpace=wrap;rounded=0;" vertex="1" parent="1">
          <mxGeometry x="-107.37" y="-785" width="60" height="30" as="geometry" />
        </mxCell>
        <mxCell id="yVazCNSj6oucUNMWv78p-16" value="" style="endArrow=classic;html=1;rounded=0;" edge="1" parent="1" source="yVazCNSj6oucUNMWv78p-8">
          <mxGeometry width="50" height="50" relative="1" as="geometry">
            <mxPoint x="242.63" y="-770" as="sourcePoint" />
            <mxPoint x="332.63" y="-770" as="targetPoint" />
          </mxGeometry>
        </mxCell>
        <mxCell id="yVazCNSj6oucUNMWv78p-17" value="forward to &lt;br&gt;ELB DNS&lt;br&gt;" style="edgeLabel;html=1;align=center;verticalAlign=middle;resizable=0;points=[];" vertex="1" connectable="0" parent="yVazCNSj6oucUNMWv78p-16">
          <mxGeometry x="-0.1079" y="-1" relative="1" as="geometry">
            <mxPoint as="offset" />
          </mxGeometry>
        </mxCell>
        <mxCell id="yVazCNSj6oucUNMWv78p-18" value="LB&lt;br&gt;Target group&lt;br&gt;(Health check)" style="whiteSpace=wrap;html=1;aspect=fixed;" vertex="1" parent="1">
          <mxGeometry x="552.63" y="-807" width="80" height="80" as="geometry" />
        </mxCell>
        <mxCell id="yVazCNSj6oucUNMWv78p-19" value="" style="endArrow=classic;html=1;rounded=0;entryX=-0.087;entryY=0.45;entryDx=0;entryDy=0;entryPerimeter=0;" edge="1" parent="1" target="yVazCNSj6oucUNMWv78p-18">
          <mxGeometry width="50" height="50" relative="1" as="geometry">
            <mxPoint x="432.63" y="-770" as="sourcePoint" />
            <mxPoint x="512.63" y="-770" as="targetPoint" />
          </mxGeometry>
        </mxCell>
        <mxCell id="yVazCNSj6oucUNMWv78p-20" value="Forward to Target group" style="edgeLabel;html=1;align=center;verticalAlign=middle;resizable=0;points=[];" vertex="1" connectable="0" parent="yVazCNSj6oucUNMWv78p-19">
          <mxGeometry x="-0.45" y="2" relative="1" as="geometry">
            <mxPoint x="27" y="-18" as="offset" />
          </mxGeometry>
        </mxCell>
        <mxCell id="yVazCNSj6oucUNMWv78p-24" value="" style="endArrow=classic;html=1;rounded=0;entryX=0;entryY=0.79;entryDx=0;entryDy=0;entryPerimeter=0;" edge="1" parent="1" target="yVazCNSj6oucUNMWv78p-6">
          <mxGeometry width="50" height="50" relative="1" as="geometry">
            <mxPoint x="642.63" y="-790" as="sourcePoint" />
            <mxPoint x="692.63" y="-840" as="targetPoint" />
          </mxGeometry>
        </mxCell>
        <mxCell id="yVazCNSj6oucUNMWv78p-25" value="" style="endArrow=classic;html=1;rounded=0;entryX=0;entryY=0.5;entryDx=0;entryDy=0;entryPerimeter=0;" edge="1" parent="1" target="yVazCNSj6oucUNMWv78p-21">
          <mxGeometry width="50" height="50" relative="1" as="geometry">
            <mxPoint x="642.63" y="-790" as="sourcePoint" />
            <mxPoint x="712.63" y="-760" as="targetPoint" />
          </mxGeometry>
        </mxCell>
        <mxCell id="yVazCNSj6oucUNMWv78p-26" value="" style="endArrow=classic;html=1;rounded=0;entryX=0;entryY=0.5;entryDx=0;entryDy=0;entryPerimeter=0;" edge="1" parent="1" target="yVazCNSj6oucUNMWv78p-22">
          <mxGeometry width="50" height="50" relative="1" as="geometry">
            <mxPoint x="652.63" y="-770" as="sourcePoint" />
            <mxPoint x="672.63" y="-660" as="targetPoint" />
          </mxGeometry>
        </mxCell>
        <mxCell id="yVazCNSj6oucUNMWv78p-35" value="" style="outlineConnect=0;dashed=0;verticalLabelPosition=bottom;verticalAlign=top;align=center;html=1;shape=mxgraph.aws3.waf;fillColor=#759C3E;gradientColor=none;" vertex="1" parent="1">
          <mxGeometry x="344.38" y="-330" width="76.5" height="93" as="geometry" />
        </mxCell>
        <mxCell id="yVazCNSj6oucUNMWv78p-36" value="&lt;font style=&quot;font-size: 18px;&quot;&gt;WAF&lt;/font&gt;" style="text;html=1;strokeColor=none;fillColor=none;align=center;verticalAlign=middle;whiteSpace=wrap;rounded=0;" vertex="1" parent="1">
          <mxGeometry x="270" y="-310" width="60" height="30" as="geometry" />
        </mxCell>
        <mxCell id="yVazCNSj6oucUNMWv78p-37" value="" style="endArrow=classic;html=1;rounded=0;" edge="1" parent="1" source="yVazCNSj6oucUNMWv78p-35" target="yVazCNSj6oucUNMWv78p-1">
          <mxGeometry width="50" height="50" relative="1" as="geometry">
            <mxPoint x="472.63" y="-560" as="sourcePoint" />
            <mxPoint x="382.6300000000001" y="-670.76" as="targetPoint" />
          </mxGeometry>
        </mxCell>
        <mxCell id="yVazCNSj6oucUNMWv78p-38" value="" style="endArrow=classic;html=1;rounded=0;" edge="1" parent="1" source="yVazCNSj6oucUNMWv78p-39">
          <mxGeometry width="50" height="50" relative="1" as="geometry">
            <mxPoint x="632.63" y="-290" as="sourcePoint" />
            <mxPoint x="632.63" y="-400" as="targetPoint" />
          </mxGeometry>
        </mxCell>
        <mxCell id="yVazCNSj6oucUNMWv78p-39" value="&lt;font style=&quot;font-size: 18px;&quot;&gt;Create or update&lt;/font&gt;" style="text;html=1;align=center;verticalAlign=middle;resizable=0;points=[];autosize=1;strokeColor=none;fillColor=none;" vertex="1" parent="1">
          <mxGeometry x="560.63" y="-370" width="160" height="40" as="geometry" />
        </mxCell>
        <mxCell id="yVazCNSj6oucUNMWv78p-40" value="&lt;font style=&quot;font-size: 18px;&quot;&gt;Token service&lt;/font&gt;" style="rounded=0;whiteSpace=wrap;html=1;" vertex="1" parent="1">
          <mxGeometry x="1111.63" y="-140" width="120" height="60" as="geometry" />
        </mxCell>
        <mxCell id="yVazCNSj6oucUNMWv78p-41" value="" style="endArrow=classic;html=1;rounded=0;" edge="1" parent="1" source="yVazCNSj6oucUNMWv78p-46" target="yVazCNSj6oucUNMWv78p-40">
          <mxGeometry width="50" height="50" relative="1" as="geometry">
            <mxPoint x="1012.63" y="-360" as="sourcePoint" />
            <mxPoint x="1092.63" y="-320" as="targetPoint" />
            <Array as="points">
              <mxPoint x="1072.63" y="-110" />
            </Array>
          </mxGeometry>
        </mxCell>
        <mxCell id="yVazCNSj6oucUNMWv78p-42" value="&lt;font style=&quot;font-size: 18px;&quot;&gt;Verify token&lt;/font&gt;" style="edgeLabel;html=1;align=center;verticalAlign=middle;resizable=0;points=[];" vertex="1" connectable="0" parent="yVazCNSj6oucUNMWv78p-41">
          <mxGeometry x="0.2544" y="9" relative="1" as="geometry">
            <mxPoint x="1" as="offset" />
          </mxGeometry>
        </mxCell>
        <mxCell id="yVazCNSj6oucUNMWv78p-44" value="Auto Scaling group" style="points=[[0,0],[0.25,0],[0.5,0],[0.75,0],[1,0],[1,0.25],[1,0.5],[1,0.75],[1,1],[0.75,1],[0.5,1],[0.25,1],[0,1],[0,0.75],[0,0.5],[0,0.25]];outlineConnect=0;gradientColor=none;html=1;whiteSpace=wrap;fontSize=12;fontStyle=0;container=1;pointerEvents=0;collapsible=0;recursiveResize=0;shape=mxgraph.aws4.groupCenter;grIcon=mxgraph.aws4.group_auto_scaling_group;grStroke=1;strokeColor=#D86613;fillColor=none;verticalAlign=top;align=center;fontColor=#D86613;dashed=1;spacingTop=25;" vertex="1" parent="1">
          <mxGeometry x="710" y="-1010" width="300" height="520" as="geometry" />
        </mxCell>
        <mxCell id="yVazCNSj6oucUNMWv78p-6" value="" style="outlineConnect=0;dashed=0;verticalLabelPosition=bottom;verticalAlign=top;align=center;html=1;shape=mxgraph.aws3.ec2;fillColor=#F58534;gradientColor=none;" vertex="1" parent="yVazCNSj6oucUNMWv78p-44">
          <mxGeometry x="78.25" y="48.24000000000001" width="76.5" height="93" as="geometry" />
        </mxCell>
        <mxCell id="yVazCNSj6oucUNMWv78p-7" value="" style="outlineConnect=0;dashed=0;verticalLabelPosition=bottom;verticalAlign=top;align=center;html=1;shape=mxgraph.aws3.rds;fillColor=#2E73B8;gradientColor=none;" vertex="1" parent="yVazCNSj6oucUNMWv78p-44">
          <mxGeometry x="408.25" y="60.24000000000001" width="72" height="81" as="geometry" />
        </mxCell>
        <mxCell id="yVazCNSj6oucUNMWv78p-21" value="" style="outlineConnect=0;dashed=0;verticalLabelPosition=bottom;verticalAlign=top;align=center;html=1;shape=mxgraph.aws3.ec2;fillColor=#F58534;gradientColor=none;" vertex="1" parent="yVazCNSj6oucUNMWv78p-44">
          <mxGeometry x="78.25" y="213.24" width="76.5" height="93" as="geometry" />
        </mxCell>
        <mxCell id="yVazCNSj6oucUNMWv78p-22" value="" style="outlineConnect=0;dashed=0;verticalLabelPosition=bottom;verticalAlign=top;align=center;html=1;shape=mxgraph.aws3.ec2;fillColor=#F58534;gradientColor=none;" vertex="1" parent="yVazCNSj6oucUNMWv78p-44">
          <mxGeometry x="68.25" y="378.24" width="76.5" height="93" as="geometry" />
        </mxCell>
        <mxCell id="yVazCNSj6oucUNMWv78p-23" value="" style="outlineConnect=0;dashed=0;verticalLabelPosition=bottom;verticalAlign=top;align=center;html=1;shape=mxgraph.aws3.elasticache;fillColor=#2E73B8;gradientColor=none;" vertex="1" parent="yVazCNSj6oucUNMWv78p-44">
          <mxGeometry x="420.5" y="297.24" width="67.5" height="81" as="geometry" />
        </mxCell>
        <mxCell id="yVazCNSj6oucUNMWv78p-27" value="" style="endArrow=classic;html=1;rounded=0;" edge="1" parent="yVazCNSj6oucUNMWv78p-44">
          <mxGeometry width="50" height="50" relative="1" as="geometry">
            <mxPoint x="158.25" y="428.24" as="sourcePoint" />
            <mxPoint x="408.25" y="358.24" as="targetPoint" />
          </mxGeometry>
        </mxCell>
        <mxCell id="yVazCNSj6oucUNMWv78p-28" value="" style="endArrow=classic;html=1;rounded=0;" edge="1" parent="yVazCNSj6oucUNMWv78p-44">
          <mxGeometry width="50" height="50" relative="1" as="geometry">
            <mxPoint x="168.25" y="268.24" as="sourcePoint" />
            <mxPoint x="408.25" y="328.24" as="targetPoint" />
          </mxGeometry>
        </mxCell>
        <mxCell id="yVazCNSj6oucUNMWv78p-29" value="" style="endArrow=classic;html=1;rounded=0;" edge="1" parent="yVazCNSj6oucUNMWv78p-44">
          <mxGeometry width="50" height="50" relative="1" as="geometry">
            <mxPoint x="158.25" y="98.24000000000001" as="sourcePoint" />
            <mxPoint x="408.25" y="318.24" as="targetPoint" />
          </mxGeometry>
        </mxCell>
        <mxCell id="yVazCNSj6oucUNMWv78p-30" value="&lt;font style=&quot;font-size: 18px;&quot;&gt;Elastic cache&lt;/font&gt;" style="text;html=1;strokeColor=none;fillColor=none;align=center;verticalAlign=middle;whiteSpace=wrap;rounded=0;" vertex="1" parent="yVazCNSj6oucUNMWv78p-44">
          <mxGeometry x="501" y="329.24" width="60" height="30" as="geometry" />
        </mxCell>
        <mxCell id="yVazCNSj6oucUNMWv78p-31" value="&lt;font style=&quot;font-size: 18px;&quot;&gt;RDS&lt;/font&gt;" style="text;html=1;strokeColor=none;fillColor=none;align=center;verticalAlign=middle;whiteSpace=wrap;rounded=0;" vertex="1" parent="yVazCNSj6oucUNMWv78p-44">
          <mxGeometry x="488" y="85.74000000000001" width="60" height="30" as="geometry" />
        </mxCell>
        <mxCell id="yVazCNSj6oucUNMWv78p-32" value="" style="endArrow=classic;html=1;rounded=0;entryX=0;entryY=0.346;entryDx=0;entryDy=0;entryPerimeter=0;" edge="1" parent="yVazCNSj6oucUNMWv78p-44" target="yVazCNSj6oucUNMWv78p-7">
          <mxGeometry width="50" height="50" relative="1" as="geometry">
            <mxPoint x="158.25" y="88.24000000000001" as="sourcePoint" />
            <mxPoint x="378.25" y="88.24000000000001" as="targetPoint" />
          </mxGeometry>
        </mxCell>
        <mxCell id="yVazCNSj6oucUNMWv78p-33" value="" style="endArrow=classic;html=1;rounded=0;" edge="1" parent="yVazCNSj6oucUNMWv78p-44" target="yVazCNSj6oucUNMWv78p-7">
          <mxGeometry width="50" height="50" relative="1" as="geometry">
            <mxPoint x="158.25" y="258.24" as="sourcePoint" />
            <mxPoint x="208.25" y="208.24" as="targetPoint" />
          </mxGeometry>
        </mxCell>
        <mxCell id="yVazCNSj6oucUNMWv78p-34" value="" style="endArrow=classic;html=1;rounded=0;" edge="1" parent="yVazCNSj6oucUNMWv78p-44" target="yVazCNSj6oucUNMWv78p-7">
          <mxGeometry width="50" height="50" relative="1" as="geometry">
            <mxPoint x="148.25" y="418.24" as="sourcePoint" />
            <mxPoint x="198.25" y="368.24" as="targetPoint" />
          </mxGeometry>
        </mxCell>
        <mxCell id="yVazCNSj6oucUNMWv78p-43" value="" style="rounded=1;arcSize=10;dashed=1;strokeColor=#ff0000;fillColor=none;gradientColor=none;dashPattern=8 4;strokeWidth=2;" vertex="1" parent="yVazCNSj6oucUNMWv78p-44">
          <mxGeometry x="30" y="31.120000000000005" width="199.5" height="457.25" as="geometry" />
        </mxCell>
        <mxCell id="yVazCNSj6oucUNMWv78p-45" value="&lt;font color=&quot;#ff3333&quot; style=&quot;font-size: 14px;&quot;&gt;Security Group&lt;/font&gt;" style="text;html=1;strokeColor=none;fillColor=none;align=center;verticalAlign=middle;whiteSpace=wrap;rounded=0;" vertex="1" parent="yVazCNSj6oucUNMWv78p-44">
          <mxGeometry x="228.62" y="415.23" width="60" height="30" as="geometry" />
        </mxCell>
        <mxCell id="yVazCNSj6oucUNMWv78p-47" style="edgeStyle=orthogonalEdgeStyle;rounded=0;orthogonalLoop=1;jettySize=auto;html=1;exitX=0.5;exitY=1;exitDx=0;exitDy=0;" edge="1" parent="1" source="yVazCNSj6oucUNMWv78p-9" target="yVazCNSj6oucUNMWv78p-9">
          <mxGeometry relative="1" as="geometry" />
        </mxCell>
        <mxCell id="yVazCNSj6oucUNMWv78p-48" value="" style="sketch=0;outlineConnect=0;fontColor=#232F3E;gradientColor=none;fillColor=#3F8624;strokeColor=none;dashed=0;verticalLabelPosition=bottom;verticalAlign=top;align=center;html=1;fontSize=12;fontStyle=0;aspect=fixed;pointerEvents=1;shape=mxgraph.aws4.iot_analytics_pipeline;" vertex="1" parent="1">
          <mxGeometry x="601.63" y="-131" width="78" height="42" as="geometry" />
        </mxCell>
        <mxCell id="yVazCNSj6oucUNMWv78p-49" value="" style="endArrow=classic;html=1;rounded=0;" edge="1" parent="1" target="yVazCNSj6oucUNMWv78p-46">
          <mxGeometry width="50" height="50" relative="1" as="geometry">
            <mxPoint x="640" y="-140" as="sourcePoint" />
            <mxPoint x="690" y="-190" as="targetPoint" />
          </mxGeometry>
        </mxCell>
        <mxCell id="yVazCNSj6oucUNMWv78p-50" value="&lt;font style=&quot;font-size: 19px;&quot;&gt;Pipeline&lt;/font&gt;" style="text;html=1;strokeColor=none;fillColor=none;align=center;verticalAlign=middle;whiteSpace=wrap;rounded=0;" vertex="1" parent="1">
          <mxGeometry x="520" y="-118" width="60" height="30" as="geometry" />
        </mxCell>
        <mxCell id="yVazCNSj6oucUNMWv78p-46" value="AWS Cloud" style="sketch=0;outlineConnect=0;gradientColor=none;html=1;whiteSpace=wrap;fontSize=12;fontStyle=0;shape=mxgraph.aws4.group;grIcon=mxgraph.aws4.group_aws_cloud;strokeColor=#AAB7B8;fillColor=none;verticalAlign=top;align=left;spacingLeft=30;fontColor=#AAB7B8;dashed=0;" vertex="1" parent="1">
          <mxGeometry x="30" y="-1100" width="1400" height="870" as="geometry" />
        </mxCell>
        <mxCell id="BucaAojxjE9xv4VfpHad-1" value="" style="sketch=0;points=[[0,0,0],[0.25,0,0],[0.5,0,0],[0.75,0,0],[1,0,0],[0,1,0],[0.25,1,0],[0.5,1,0],[0.75,1,0],[1,1,0],[0,0.25,0],[0,0.5,0],[0,0.75,0],[1,0.25,0],[1,0.5,0],[1,0.75,0]];points=[[0,0,0],[0.25,0,0],[0.5,0,0],[0.75,0,0],[1,0,0],[0,1,0],[0.25,1,0],[0.5,1,0],[0.75,1,0],[1,1,0],[0,0.25,0],[0,0.5,0],[0,0.75,0],[1,0.25,0],[1,0.5,0],[1,0.75,0]];outlineConnect=0;fontColor=#232F3E;gradientColor=#F34482;gradientDirection=north;fillColor=#BC1356;strokeColor=#ffffff;dashed=0;verticalLabelPosition=bottom;verticalAlign=top;align=center;html=1;fontSize=12;fontStyle=0;aspect=fixed;shape=mxgraph.aws4.resourceIcon;resIcon=mxgraph.aws4.cloudwatch_2;" vertex="1" parent="1">
          <mxGeometry x="827" y="-450" width="71" height="71" as="geometry" />
        </mxCell>
      </root>
    </mxGraphModel>
  </diagram>
</mxfile>
